<svg xmlns="http://www.w3.org/2000/svg" width="209" height="103.6" viewBox="0 0 209 103.6">
  <g id="Group_1994" data-name="Group 1994" transform="translate(-19.921 -161.957)">
    <path id="Path_4609" data-name="Path 4609" d="M156.627,171.368c-11.619-3.822-25.151-2.122-36.957-.252a159.934,159.934,0,0,0-46.559,14.72c-11.98,6.016-24.5,14.713-29.888,27.482-5.41,12.819-.422,27.745,10.221,36.2,14.085,11.194,34.783,12.366,52.007,12.821,22.484.591,44.405-1.586,66.049-7.967a167.218,167.218,0,0,0,34.379-14.383c9.2-5.15,20.035-11.813,22.631-22.789,2.194-9.275-4.824-17.684-11.233-23.357-9.364-8.28-21.155-13.888-32.843-18.041-22.108-7.861-48.457-10.374-71.583-6.075-15.558,2.891-30.7,9.146-44.679,16.413-17.843,9.274-56.8,33.771-36.746,57.93,5.422,6.532,13.615,10.631,21.26,13.895,12.2,5.212,25.622,7.3,38.813,7.565,25.234.514,49.236-7.252,72.154-17.035,17.221-7.352,35.474-15.411,48.633-29.157,10.47-10.937,14.684-27.515,4.212-39.915-10.151-12.016-28.968-15.1-43.677-16.642-18.2-1.912-36.472-.37-54.384,3.133-23.453,4.585-46.566,13.125-66.351,26.67A108.952,108.952,0,0,0,28.6,214.223c-3.421,4.269-6.481,9.026-7.953,14.343-5.967,21.607,26.4,26.082,40.529,27.51,26.843,2.711,54.551.642,81.192-3.194a259.593,259.593,0,0,0,30.085-6.548c14.189-3.8,32.09-9.039,40.046-22.563,8.506-14.463-3.115-32.149-14.559-40.948-14.55-11.184-34.434-13.867-52.222-14.556a274.243,274.243,0,0,0-33.1,1.1c-1.558.131-1.57,2.573,0,2.446,18.588-1.534,37.517-2.215,55.913,1.423,18.92,3.744,38.41,14.145,43.634,34.162,5.088,19.5-16.722,29.163-31.548,33.994a231.76,231.76,0,0,1-33.6,8.316c-17.943,2.984-141.5,17.12-122.5-24.6,3.315-7.285,9.157-13.5,14.815-19.005,8.815-8.584,19.253-15.375,30.142-21.014,22.077-11.436,46.983-17.663,71.645-20.019,23.653-2.257,88.7-.761,78.144,38.211-5.083,18.745-27.7,29.7-43.723,37.276-21.783,10.3-44.423,19.1-68.531,21.8-23.787,2.662-54.091-.681-72.16-18.2-10.927-10.595-5.8-23.794,3.249-33.563,11.259-12.163,26.727-20.6,41.665-27.353,15.43-6.975,31.432-11.835,48.393-12.613,28.351-1.3,57.943,4.412,81.684,20.557,9.943,6.764,21.2,18.128,14.193,30.8-3.364,6.08-9.832,10.082-15.561,13.648a140.772,140.772,0,0,1-17.377,9.017C167.753,255,141.949,259.984,116.491,260c-18.711.013-39.255.008-56.221-8.943-14.5-7.648-21.238-25.123-13.328-39.856,7.19-13.4,22.586-21.584,36.058-27.235a166.037,166.037,0,0,1,40.108-10.915c10.519-1.539,22.574-2.711,32.868.674,1.5.493,2.14-1.868.652-2.356Z" transform="translate(0 0)" fill="#3192d9"/>
  </g>
</svg>
