<svg xmlns="http://www.w3.org/2000/svg" width="15.692" height="10.466" viewBox="0 0 15.692 10.466">
  <path id="Icon_ionic-ios-arrow-round-forward" data-name="Icon ionic-ios-arrow-round-forward" d="M17.882,11.452a.712.712,0,0,0-.005,1l3.314,3.319H8.578a.709.709,0,0,0,0,1.417H21.185l-3.314,3.319a.717.717,0,0,0,.005,1,.706.706,0,0,0,1-.005l4.491-4.524h0a.8.8,0,0,0,.147-.223.676.676,0,0,0,.055-.273.71.71,0,0,0-.2-.5l-4.491-4.524A.694.694,0,0,0,17.882,11.452Z" transform="translate(-7.875 -11.251)" fill="#fff"/>
</svg>
