<svg xmlns="http://www.w3.org/2000/svg" width="181.571" height="29.492" viewBox="0 0 181.571 29.492">
  <g id="Group_2" data-name="Group 2" transform="translate(-598.45 -481.275)">
    <path id="Path_1" data-name="Path 1" d="M616.9,500.274v10.272H611.7V500.494a5.769,5.769,0,0,0-.957-3.59,3.41,3.41,0,0,0-2.872-1.233,3.812,3.812,0,0,0-3.111,1.362,5.8,5.8,0,0,0-1.123,3.792v9.72H598.45V481.275h5.191v12.666a6.892,6.892,0,0,1,5.6-2.541,7.638,7.638,0,0,1,5.5,2.062Q616.9,495.524,616.9,500.274Z" transform="translate(0 0)"/>
    <path id="Path_2" data-name="Path 2" d="M695.933,541.4h-4.6l-.478-2.283a7.271,7.271,0,0,1-2.32,1.841,7.2,7.2,0,0,1-3.24.663,7.433,7.433,0,0,1-5.412-2.044q-2.1-2.043-2.1-6.83V522.479h5.191v9.646a6.856,6.856,0,0,0,.9,3.884,3.145,3.145,0,0,0,2.78,1.307,3.526,3.526,0,0,0,3.019-1.454,6.769,6.769,0,0,0,1.068-4.068v-9.315h5.191Z" transform="translate(-59.412 -30.858)"/>
    <path id="Path_3" data-name="Path 3" d="M788.214,530.36V540.78h-5.192v-10.6q0-4.308-3.277-4.308a3.418,3.418,0,0,0-2.724,1.2,4.942,4.942,0,0,0-1.031,3.332V540.78H770.8v-10.6q0-4.308-3.314-4.308a3.322,3.322,0,0,0-2.706,1.233,5.1,5.1,0,0,0-1.013,3.332V540.78h-5.192V521.818H763.1l.479,2.356a6.7,6.7,0,0,1,2.283-1.878,7.716,7.716,0,0,1,3.314-.7q4.05,0,5.633,3.2a6.845,6.845,0,0,1,2.706-2.375,8.483,8.483,0,0,1,3.811-.829,6.531,6.531,0,0,1,4.971,2.025Q788.214,525.647,788.214,530.36Z" transform="translate(-119.917 -30.197)"/>
    <path id="Path_4" data-name="Path 4" d="M986.168,530.471v10.272h-5.192v-9.978q0-4.9-3.829-4.9a3.8,3.8,0,0,0-3.13,1.362,5.931,5.931,0,0,0-1.1,3.829v9.683h-5.192V521.818h4.529l.479,2.356a7.04,7.04,0,0,1,2.393-1.9,7.873,7.873,0,0,1,3.461-.682,7.524,7.524,0,0,1,5.449,2.062Q986.168,525.721,986.168,530.471Z" transform="translate(-276.547 -30.197)"/>
    <path id="Path_5" data-name="Path 5" d="M1051.271,537.649a6.878,6.878,0,0,0,6.885.276,2.385,2.385,0,0,0,1.233-2.08,2.293,2.293,0,0,0-.589-1.694,3.118,3.118,0,0,0-1.528-.81q-.939-.221-2.669-.441a23.329,23.329,0,0,1-3.977-.773,5.507,5.507,0,0,1-2.5-1.528,4.127,4.127,0,0,1-.958-2.89,4.876,4.876,0,0,1,.939-2.945,6.19,6.19,0,0,1,2.559-2.007,8.909,8.909,0,0,1,3.645-.718,8.812,8.812,0,0,1,5.394,1.546A5.766,5.766,0,0,1,1062,528h-3.019a3.516,3.516,0,0,0-1.436-2.43,5,5,0,0,0-3.13-.957,5.452,5.452,0,0,0-3.093.792,2.407,2.407,0,0,0-1.178,2.08,1.916,1.916,0,0,0,.552,1.473,2.913,2.913,0,0,0,1.418.7q.865.185,2.632.405a22.18,22.18,0,0,1,4.068.81,5.529,5.529,0,0,1,2.577,1.657,4.6,4.6,0,0,1,.976,3.093,4.746,4.746,0,0,1-.994,2.982,6.39,6.39,0,0,1-2.688,1.988,9.747,9.747,0,0,1-3.755.7,9.515,9.515,0,0,1-5.91-1.694,5.677,5.677,0,0,1-2.264-4.713h3.019A3.51,3.51,0,0,0,1051.271,537.649Z" transform="translate(-335.74 -30.528)" fill="#00debc"/>
    <path id="Path_6" data-name="Path 6" d="M1132.1,541.843h-2.614l-.4-2.5A8,8,0,0,1,1117.7,540q-2.025-2.062-2.025-6.48V523.066h3.019v10.272a6.78,6.78,0,0,0,1.27,4.437,4.45,4.45,0,0,0,3.627,1.528,4.853,4.853,0,0,0,4.032-1.841,7.87,7.87,0,0,0,1.454-5.008v-9.388h3.019Z" transform="translate(-387.352 -31.297)" fill="#00debc"/>
    <path id="Path_7" data-name="Path 7" d="M1193.78,502.39a1.89,1.89,0,1,1-.552-1.4A1.9,1.9,0,0,1,1193.78,502.39Zm-.442,3.73V524.9h-3.019V506.121Z" transform="translate(-442.919 -14.352)" fill="#00debc"/>
    <path id="Path_8" data-name="Path 8" d="M1205.712,510.014v-2.761h3.387v-5.3h3.019v5.3h4.75v2.761h-4.75V521.1a2.443,2.443,0,0,0,.46,1.675,2.119,2.119,0,0,0,1.6.5h3.277v2.761H1214a5.054,5.054,0,0,1-3.774-1.178,5.244,5.244,0,0,1-1.123-3.718V510.014Z" transform="translate(-454.778 -15.483)" fill="#00debc"/>
    <path id="Path_9" data-name="Path 9" d="M1254.855,523.381a8.947,8.947,0,0,1,4.639-1.2,9.5,9.5,0,0,1,4.566,1.068,7.745,7.745,0,0,1,3.13,3.093,10.083,10.083,0,0,1,1.215,4.749q0,.405-.073,1.289h-14.58v.258a6.3,6.3,0,0,0,1.694,4.419,5.659,5.659,0,0,0,4.234,1.656,5.77,5.77,0,0,0,3.443-1.012,4.877,4.877,0,0,0,1.9-2.817h3.056a7.808,7.808,0,0,1-2.761,4.694,8.222,8.222,0,0,1-5.412,1.823,9.72,9.72,0,0,1-4.9-1.2,8.26,8.26,0,0,1-3.258-3.387,10.583,10.583,0,0,1-1.16-5.026,10.839,10.839,0,0,1,1.123-5.044A8.185,8.185,0,0,1,1254.855,523.381Zm8.634,2.78a5.91,5.91,0,0,0-3.958-1.326,5.575,5.575,0,0,0-3.756,1.4,5.318,5.318,0,0,0-1.841,3.646h11.34A5.282,5.282,0,0,0,1263.488,526.161Z" transform="translate(-488.382 -30.637)" fill="#00debc"/>
    <g id="Group_1" data-name="Group 1" transform="translate(668.333 491.511)">
      <path id="Path_10" data-name="Path 10" d="M885.378,522.039h5.481l-8.622,19.035h-5.481Z" transform="translate(-876.757 -522.039)"/>
      <path id="Path_11" data-name="Path 11" d="M911.287,522.039h5.481l8.349,19.035h-5.481Z" transform="translate(-902.617 -522.039)"/>
    </g>
  </g>
</svg>
