<svg xmlns="http://www.w3.org/2000/svg" xmlns:xlink="http://www.w3.org/1999/xlink" width="470.35" height="479.495" viewBox="0 0 470.35 479.495">
  <defs>
    <clipPath id="clip-path">
      <rect id="Rectangle_156" data-name="Rectangle 156" width="470.35" height="422.326" fill="none"/>
    </clipPath>
    <clipPath id="clip-path-2">
      <path id="Path_3750" data-name="Path 3750" d="M1760.044,1946.254c.247.362.493.726.733,1.091l7.771-8.617q-.359-.545-.732-1.088C1765.484,1940.224,1762.376,1943.669,1760.044,1946.254Z" transform="translate(-1760.044 -1937.64)" fill="none"/>
    </clipPath>
    <clipPath id="clip-path-3">
      <path id="Path_3752" data-name="Path 3752" d="M1775.159,1949.7l-7.771,8.616c.283.54.565,1.081.836,1.628l7.772-8.615Q1775.588,1950.511,1775.159,1949.7Z" transform="translate(-1767.388 -1949.701)" fill="none"/>
    </clipPath>
    <clipPath id="clip-path-4">
      <path id="Path_3755" data-name="Path 3755" d="M1780.079,1960.016l-7.773,8.616c.016.035.033.074.048.111l7.772-8.618C1780.111,1960.088,1780.1,1960.052,1780.079,1960.016Z" transform="translate(-1772.306 -1960.016)" fill="none"/>
    </clipPath>
    <clipPath id="clip-path-5">
      <path id="Path_3757" data-name="Path 3757" d="M1681.031,1888.517c.236.063.474.128.71.2l7.774-8.619c-.238-.066-.476-.131-.712-.195C1686.472,1882.487,1683.363,1885.932,1681.031,1888.517Z" transform="translate(-1681.031 -1879.901)" fill="none"/>
    </clipPath>
    <clipPath id="clip-path-6">
      <path id="Path_3759" data-name="Path 3759" d="M1670.18,1886.213c.379.059.754.124,1.132.192l7.772-8.615q-.564-.106-1.131-.192Z" transform="translate(-1670.18 -1877.598)" fill="none"/>
    </clipPath>
    <clipPath id="clip-path-7">
      <path id="Path_3762" data-name="Path 3762" d="M1779.7,1997.541c.021.225.041.454.056.68l7.774-8.617c-.018-.225-.037-.453-.058-.681C1785.142,1991.509,1782.035,1994.956,1779.7,1997.541Z" transform="translate(-1779.703 -1988.923)" fill="none"/>
    </clipPath>
    <clipPath id="clip-path-8">
      <path id="Path_3765" data-name="Path 3765" d="M1787.693,1991.931c-2.332,2.585-5.442,6.03-7.772,8.615q.935-1.021,1.869-2.044,2.956-3.224,5.907-6.447Z" transform="translate(-1779.921 -1991.931)" fill="none"/>
    </clipPath>
    <clipPath id="clip-path-9">
      <path id="Path_3768" data-name="Path 3768" d="M1647.765,1877.974l-7.772,8.616c.626-.151,1.269-.286,1.922-.4l7.771-8.615C1649.034,1877.686,1648.391,1877.824,1647.765,1877.974Z" transform="translate(-1639.993 -1877.576)" fill="none"/>
    </clipPath>
    <clipPath id="clip-path-10">
      <path id="Path_3770" data-name="Path 3770" d="M1666.071,1903.526l-7.773,8.616a26,26,0,0,1,8.493.01l7.772-8.616A26.011,26.011,0,0,0,1666.071,1903.526Z" transform="translate(-1658.298 -1903.182)" fill="none"/>
    </clipPath>
    <clipPath id="clip-path-11">
      <path id="Path_3774" data-name="Path 3774" d="M1644.936,1909.139l-7.771,8.617a16.986,16.986,0,0,1,9.945-5.224l7.771-8.616A16.99,16.99,0,0,0,1644.936,1909.139Z" transform="translate(-1637.165 -1903.916)" fill="none"/>
    </clipPath>
    <clipPath id="clip-path-12">
      <path id="Path_3780" data-name="Path 3780" d="M1773.008,2000.686c.328,7.553-1.814,14.176-6.15,18.982l7.772-8.618c4.309-4.779,6.453-11.355,6.154-18.855q-1.436,1.567-2.871,3.135c-.3.332-.711.778-1.016,1.111-.154.166-.358.389-.511.556q-1,1.087-1.994,2.178c-.143.155-.334.364-.477.518C1773.641,1999.991,1773.144,2000.307,1773.008,2000.686Z" transform="translate(-1766.858 -1992.195)" fill="none"/>
    </clipPath>
    <clipPath id="clip-path-13">
      <path id="Path_3784" data-name="Path 3784" d="M1600.958,1927.649q-.2,1.072-.316,2.184,3.886-4.307,7.771-8.616c.08-.741.184-1.47.317-2.186C1606.4,1921.617,1602.5,1924.524,1600.958,1927.649Z" transform="translate(-1600.641 -1919.032)" fill="none"/>
    </clipPath>
    <clipPath id="clip-path-15">
      <path id="Path_3792" data-name="Path 3792" d="M1614.311,1893.445l-7.77,8.616a23.62,23.62,0,0,0-5.573,12.047c-.127.709-.229,1.439-.307,2.179l7.771-8.615q.119-1.114.308-2.181A23.635,23.635,0,0,1,1614.311,1893.445Z" transform="translate(-1600.661 -1893.445)" fill="#96a2bd"/>
    </clipPath>
    <clipPath id="clip-path-16">
      <path id="Path_3795" data-name="Path 3795" d="M1620.754,1976.431l-7.77,8.615c.394.734.805,1.446,1.221,2.158l7.772-8.616C1621.561,1977.878,1621.151,1977.163,1620.754,1976.431Z" transform="translate(-1612.984 -1976.431)" fill="none"/>
    </clipPath>
    <clipPath id="clip-path-17">
      <path id="Path_3797" data-name="Path 3797" d="M1620.764,1976.441l-7.771,8.615c.39.729.8,1.443,1.217,2.153l7.772-8.616C1621.56,1977.883,1621.155,1977.168,1620.764,1976.441Z" transform="translate(-1612.993 -1976.441)" fill="none"/>
    </clipPath>
    <clipPath id="clip-path-18">
      <path id="Path_3801" data-name="Path 3801" d="M1606.248,1957.128c.41.764.84,1.513,1.28,2.251l7.772-8.615c-.441-.737-.871-1.489-1.281-2.252-4.764-8.831-6.592-17.446-5.805-24.836q-3.883,4.308-7.772,8.616C1599.656,1939.683,1601.483,1948.3,1606.248,1957.128Z" transform="translate(-1600.266 -1923.675)" fill="none"/>
    </clipPath>
    <clipPath id="clip-path-19">
      <path id="Path_3806" data-name="Path 3806" d="M1606.248,1957.128c.41.764.84,1.513,1.28,2.251l7.772-8.615c-.441-.737-.871-1.489-1.281-2.252-4.764-8.831-6.592-17.446-5.805-24.836q-3.883,4.308-7.772,8.616C1599.656,1939.683,1601.483,1948.3,1606.248,1957.128Z" transform="translate(-1600.266 -1923.675)" fill="#35a3bf"/>
    </clipPath>
    <clipPath id="clip-path-20">
      <path id="Path_3816" data-name="Path 3816" d="M1618.555,2003.384c-.092-.134-.2-.325-.28-.463-.013-.019-1.213-1.976-1.313-2.111a19.411,19.411,0,0,1-1.1-1.706l-.173.193c.315.541.651,1.076.989,1.605l.162.259c.509.8,1.035,1.595,1.575,2.373a67.682,67.682,0,0,0,26.051,22.286c.807.391,1.619.768,2.446,1.133-.279-.125-1.024-.459-1.788-.854-.895-.458-4.655-2.468-4.672-2.478-1.191-.663-2.71-1.663-3.857-2.4a80.641,80.641,0,0,1-7.042-5.421,62.484,62.484,0,0,1-6.038-6.038A64.911,64.911,0,0,1,1618.555,2003.384Z" transform="translate(-1615.692 -1999.104)" fill="none"/>
    </clipPath>
    <clipPath id="clip-path-21">
      <path id="Path_3820" data-name="Path 3820" d="M1625.564,1984.619l-7.772,8.618.162.259,7.771-8.617C1625.672,1984.793,1625.618,1984.707,1625.564,1984.619Z" transform="translate(-1617.792 -1984.619)" fill="none"/>
    </clipPath>
    <clipPath id="clip-path-23">
      <path id="Path_3829" data-name="Path 3829" d="M1618.75,1993.917a64.878,64.878,0,0,0,4.963,6.38,62.468,62.468,0,0,0,6.038,6.038,80.677,80.677,0,0,0,7.042,5.422c1.147.734,2.666,1.733,3.857,2.4.017.01,3.777,2.021,4.672,2.478.764.4,1.509.729,1.788.854l7.774-8.618c-.829-.364-1.641-.739-2.448-1.131a67.722,67.722,0,0,1-26.052-22.286q-.808-1.169-1.574-2.373c-.054-.087-.108-.173-.162-.261-.336-.528-.673-1.062-.989-1.6-2.28,2.527-5.319,5.9-7.6,8.422a19.429,19.429,0,0,0,1.1,1.706c.1.128,1.3,2.092,1.313,2.111C1618.553,1993.592,1618.658,1993.782,1618.75,1993.917Z" transform="translate(-1616.06 -1981.214)" fill="none"/>
    </clipPath>
    <clipPath id="clip-path-24">
      <path id="Path_3832" data-name="Path 3832" d="M1676.819,2046.169c.811.4,1.628.772,2.446,1.133l7.773-8.618c-.82-.361-1.637-.734-2.448-1.131C1682.261,2040.137,1679.152,2043.584,1676.819,2046.169Z" transform="translate(-1676.819 -2037.553)" fill="none"/>
    </clipPath>
    <clipPath id="clip-path-25">
      <path id="Path_3836" data-name="Path 3836" d="M1678.978,2047.175c.1.041.193.085.287.127l7.773-8.618c-.82-.361-1.637-.734-2.448-1.131-2.33,2.584-5.439,6.031-7.771,8.616C1677.33,2046.417,1677.985,2046.732,1678.978,2047.175Z" transform="translate(-1676.819 -2037.553)" fill="#38bfa1"/>
    </clipPath>
  </defs>
  <g id="Group_242" data-name="Group 242" transform="translate(-1152.531 -1506.386)">
    <g id="Group_241" data-name="Group 241" transform="translate(1152.531 1506.728)">
      <g id="Group_144" data-name="Group 144" transform="translate(0 56.826)">
        <g id="Group_143" data-name="Group 143" clip-path="url(#clip-path)">
          <g id="Group_131" data-name="Group 131" transform="translate(325.857 241.361)">
            <g id="Group_130" data-name="Group 130" transform="translate(4.663 52.063)">
              <g id="Group_128" data-name="Group 128" transform="translate(5.826 30.744)">
                <path id="Path_3661" data-name="Path 3661" d="M1917.6,2316.021l6.778,10.335-56.924,18.235s-3.8-3.637,10.165-10.938C1893.884,2325.143,1917.6,2316.021,1917.6,2316.021Z" transform="translate(-1866.986 -2316.021)" fill="#88bdda"/>
                <path id="Path_3662" data-name="Path 3662" d="M1988.36,2316.021l-6.776,10.335,56.919,18.235s3.8-3.637-10.165-10.938C2012.077,2325.143,1988.36,2316.021,1988.36,2316.021Z" transform="translate(-1927.634 -2316.021)" fill="#88bdda"/>
              </g>
              <rect id="Rectangle_151" data-name="Rectangle 151" width="11.892" height="42.348" transform="translate(55.552)" fill="#88bdda"/>
              <g id="Group_129" data-name="Group 129" transform="translate(12.354 32.923)">
                <path id="Path_3663" data-name="Path 3663" d="M1924.178,2320.648l5.8,9.862-48.724,17.4s-3.255-3.469,8.7-10.44C1903.877,2329.348,1924.178,2320.648,1924.178,2320.648Z" transform="translate(-1880.851 -2320.648)" fill="#acd5f4"/>
                <path id="Path_3664" data-name="Path 3664" d="M1991.072,2320.648l-5.8,9.862,48.729,17.4s3.252-3.469-8.7-10.44C2011.38,2329.348,1991.072,2320.648,1991.072,2320.648Z" transform="translate(-1936.114 -2320.648)" fill="#acd5f4"/>
              </g>
              <path id="Path_3665" data-name="Path 3665" d="M1884.134,2382.228a4.134,4.134,0,1,1-4.133-4.135A4.132,4.132,0,0,1,1884.134,2382.228Z" transform="translate(-1865.86 -2318.127)" fill="#001f46"/>
              <path id="Path_3666" data-name="Path 3666" d="M2084.678,2382.228a4.133,4.133,0,1,1-4.135-4.135A4.133,4.133,0,0,1,2084.678,2382.228Z" transform="translate(-1971.993 -2318.127)" fill="#001f46"/>
              <path id="Path_3667" data-name="Path 3667" d="M1862.877,2382.228a4.134,4.134,0,1,1-4.132-4.135A4.132,4.132,0,0,1,1862.877,2382.228Z" transform="translate(-1854.61 -2318.127)" fill="#367082"/>
              <path id="Path_3668" data-name="Path 3668" d="M2105.93,2382.228a4.133,4.133,0,1,1-4.135-4.135A4.131,4.131,0,0,1,2105.93,2382.228Z" transform="translate(-1983.24 -2318.127)" fill="#367082"/>
            </g>
            <rect id="Rectangle_152" data-name="Rectangle 152" width="8.7" height="15.228" transform="translate(61.659 36.545)" fill="#0054df"/>
            <path id="Path_3669" data-name="Path 3669" d="M1983.569,2191.124a8.489,8.489,0,0,1-8.486,8.487H1970.3a8.489,8.489,0,0,1-8.483-8.487h0a8.483,8.483,0,0,1,8.483-8.479h4.787a8.482,8.482,0,0,1,8.486,8.479Z" transform="translate(-1906.682 -2162.627)" fill="#0054df"/>
            <path id="Path_3670" data-name="Path 3670" d="M1976.52,2160.865c.205-1,.329-7.261.329-8.337,0-6.851-4.426-12.4-9.891-12.4h-110.2c-5.463,0-9.89,5.552-9.89,12.4,0,1.075.12,7.338.326,8.337Z" transform="translate(-1845.849 -2140.125)" fill="#8cc3ff"/>
            <path id="Path_3671" data-name="Path 3671" d="M1844.705,2187.048c0,2.1,1.226,3.795,2.739,3.795h126.541c1.51,0,2.738-1.7,2.738-3.795h0c0-2.1-1.228-3.8-2.738-3.8H1847.444c-1.513,0-2.739,1.7-2.739,3.8Z" transform="translate(-1844.705 -2162.947)" fill="#0054df"/>
          </g>
          <g id="Group_134" data-name="Group 134" transform="translate(273.399 17.879)">
            <path id="Path_3672" data-name="Path 3672" d="M1885.735,1710.3a20.09,20.09,0,0,0,20.091,20.087l5.02-9.542c11.1,0,20.088-16.716,20.088-27.808V1685.5a20.089,20.089,0,0,0-20.088-20.088h-5.02a20.092,20.092,0,0,0-20.091,20.088Z" transform="translate(-1813.96 -1665.414)" fill="#282723"/>
            <path id="Path_3673" data-name="Path 3673" d="M1940.1,1706.432a35.7,35.7,0,0,1,4.154-.32,32.652,32.652,0,0,0,.288,5.221c2.432,16.964,17.442,29.068,34.5,28.656a34.008,34.008,0,0,1-29.428,32.828c-18.719,2.683-36.031-10-38.661-28.328S1921.371,1709.116,1940.1,1706.432Z" transform="translate(-1827.127 -1686.952)" fill="#282723"/>
            <path id="Path_3674" data-name="Path 3674" d="M1896.553,1681.613a39.665,39.665,0,0,0,.48,5.657c2.031,12.9,9.871,22.7,18.439,23.9.267,5.844,2.333,10.91,2.847,15.563,1.117,10.125,12.332,11.2,12.332,11.2,1.455,9.01-33.981,21.492-33.255,20.037s8.284-12.057,10.752-21.794a19.808,19.808,0,0,0-3.082-16.243,16.428,16.428,0,0,0-11.742-5.556,2.3,2.3,0,0,1-1.691-.741,14.269,14.269,0,0,1-.632-4.2v-16.565A14.2,14.2,0,0,1,1896.553,1681.613Z" transform="translate(-1816.748 -1673.987)" fill="#e9d6b8"/>
            <path id="Path_3675" data-name="Path 3675" d="M1881.06,2003.806c.024-.091.052-.195.075-.282-.06-.07-.112-.146-.168-.217-2.748-14.205-6.984-28.045-13.457-40.552-4.571-8.827-13.785-17.191-17.848-21.417-10.477,5.711-20.016-.6-29.809,6.809a147.808,147.808,0,0,0-3.855,16.842c-1.486,8.551-2.765,16.5-3.869,23.933-15.19,1.433-52.67,4.306-66.775,7.074-8.358,1.93-8.845,5.176-10.15,6.232.741,13.636,11.81,21.342,18.509,32.266,1.19,1.942,91.388,1.045,106.305,1.045C1868.01,2035.468,1888.247,2030.886,1881.06,2003.806Z" transform="translate(-1734.295 -1811.44)" fill="#194866"/>
            <path id="Path_3676" data-name="Path 3676" d="M1739.961,2086.595c-2.462-2.85-3.831-6.409-5.663-9.577-1.429-6.094-1.406-10.193.343-11.643,6.635-5.477,29.255,5.937,86.141,91.222,12.385,18.572,39.823,57.8,33.5,51.263C1760.057,2110.39,1752.364,2100.969,1739.961,2086.595Z" transform="translate(-1733.274 -1876.472)" fill="#e2c59c"/>
            <path id="Path_3677" data-name="Path 3677" d="M1974.458,2339.468l-10.083-16.145A4.59,4.59,0,0,0,1960.3,2321l7.764,12.43c1.5,2.406,1.135,5.647-.823,7.23a3.765,3.765,0,0,1-2.193.838l2.317,3.712c1.5,2.4,4.306,3.071,6.266,1.484S1975.96,2341.876,1974.458,2339.468Z" transform="translate(-1853.423 -2012.365)" fill="#163f59"/>
            <path id="Path_3678" data-name="Path 3678" d="M1936.883,1844.295l12.483-29.391c3.711-8.736.7-17.114-6.679-18.62l-41.76-8.512c-4.605-.437-11.409,8.513-9.174,18.46l10.683,32.288Z" transform="translate(-1816.913 -1730.161)" fill="#e9d6b8"/>
            <path id="Path_3679" data-name="Path 3679" d="M2004.289,1814.328c-1.419,25.384,23.616,66.4,23.616,66.4s9.563.144,10.475-4.245c1.155-5.567-7.164-17.174-17.754-50.635C2014.069,1805.132,2004.53,1810.08,2004.289,1814.328Z" transform="translate(-1876.671 -1742.227)" fill="#163f59"/>
            <path id="Path_3680" data-name="Path 3680" d="M1857.291,1791.164c-18.873,13.538-33.88,51.844-33.88,51.844s4.247,9.307,7.965,7.44c4.715-2.373,10.51-13.565,26.87-40.23C1868.381,1793.712,1860.452,1788.9,1857.291,1791.164Z" transform="translate(-1780.977 -1731.685)" fill="#163f59"/>
            <path id="Path_3681" data-name="Path 3681" d="M1907.21,1907.405c.059,3.814,3.757,9.969,6.461,9.908l26.245.869c2.7-.061,9.215-4.766,9.156-8.584l-.232-12.828c-.062-3.811-2.3-6.855-5.009-6.795l-33.933-8.611c-2.7.064-4.851,3.205-4.79,7.02Z" transform="translate(-1824.213 -1779.7)" fill="#387bff"/>
            <path id="Path_3682" data-name="Path 3682" d="M1953.547,1957.427c-.027.418-2.04.637-4.5.482l-27.858-1.736c-2.462-.151-4.436-.617-4.409-1.038l.1-1.586c.024-.42,2.043-.634,4.5-.482l27.853,1.733c2.464.152,4.436.62,4.412,1.04Z" transform="translate(-1830.389 -1817.621)" fill="#15100c"/>
            <path id="Path_3683" data-name="Path 3683" d="M1893.474,1809.977a25.652,25.652,0,0,1,1.463-5c-5.614,25.878,38.27,15.72,44.5,8.181q.159,1.169.239,2.425c.492,9.122.109,18.244.522,27.367.365,7.256-7.459,13.471-11.248,13.611-14.133.556-17.361-.586-31.031-5.557-3.664-1.336-10.531-9.127-9.207-15.773Q1891.152,1822.639,1893.474,1809.977Z" transform="translate(-1815.447 -1739.272)" fill="#387bff"/>
            <path id="Path_3684" data-name="Path 3684" d="M1962.7,1796.935s28.326,3.529,29.256,11.377c1.326,11.187-4.511,26.992-4.511,26.992s-5.52,19.664-7.038,30.333,5.13,20.788,3.074,18.707c-.412-.419-5.326.061-13.151-3.676s-3.487-18.277-2.717-22.971,4.609-27.748,3.75-31.568S1962.7,1796.935,1962.7,1796.935Z" transform="translate(-1854.692 -1735.018)" fill="#163f59"/>
            <path id="Path_3685" data-name="Path 3685" d="M1878.182,1803.084s1.4-7.362,4.348-11.073c4.331-5.455,14.191-4.663,17.879-3.657s-12.6,8.533-8.127,36.57c.816,5.121,4.442,16.054,6.438,24.02s-1.156,29.616-1.156,29.616-6.445-3.225-7.721-2.844c-2.008.6-3-19.015-5.688-30.068C1876.435,1813.953,1878.182,1803.084,1878.182,1803.084Z" transform="translate(-1809.874 -1730.094)" fill="#163f59"/>
            <path id="Path_3686" data-name="Path 3686" d="M1776.761,2099.123c-1.961-3.1-2.562-6.825-3.77-10.19-.28-6.142.78-9.718,2.463-11.249,7.637-6.941,24.442,5.921,51.647,61.883,13.712,28.21,24.023,52.609,42.556,67.7a14.492,14.492,0,0,1,4.947,6.916c2.7,7.941,1.5,17.839,1.169,17.53C1862.792,2219.828,1813,2156.414,1776.761,2099.123Z" transform="translate(-1754.27 -1882.69)" fill="#e9d6b8"/>
            <path id="Path_3687" data-name="Path 3687" d="M1988.47,2372.4l-8.746-16.91a4.592,4.592,0,0,0-3.869-2.645l6.733,13.025c1.306,2.515.675,5.711-1.408,7.136a3.747,3.747,0,0,1-2.255.656l2.008,3.886c1.306,2.522,4.047,3.409,6.129,1.989S1989.773,2374.919,1988.47,2372.4Z" transform="translate(-1861.654 -2029.219)" fill="#194866"/>
            <path id="Path_3688" data-name="Path 3688" d="M1819.57,1880.229c-6.795-13.219,6.712-29.671,6.712-29.671s4.571.405,6.353,2.832c2.257,3.072,1.636,9.562-.729,24.381C1830.443,1886.948,1820.71,1882.44,1819.57,1880.229Z" transform="translate(-1777.932 -1763.397)" fill="#163f59"/>
            <g id="Group_132" data-name="Group 132" transform="translate(45.437 49.287)">
              <path id="Path_3689" data-name="Path 3689" d="M1831.561,1839.472s3.035.215,5.762-12.517,3.1-31.776,3.1-31.776l-9.457,29.071S1827.959,1835.472,1831.561,1839.472Z" transform="translate(-1829.79 -1783.376)" fill="#e9d6b8"/>
              <path id="Path_3690" data-name="Path 3690" d="M1847.571,1793.73c1.655-7.62,5.827-10.115,7.561-12.893a54.671,54.671,0,0,1,4-5.435c-3.326,1.034-3.948,3.477-5.172,4.494s-.676.805-.273-1.949c.23-1.563,3.29-3.724,5.079-5.375a6.612,6.612,0,0,0,1.879-2.463,31.943,31.943,0,0,0-5.479,3.479,39.773,39.773,0,0,0-6.443,6.613c-.931,1.5-2.193,6.56-2.543,10.289C1845.785,1794.7,1846.381,1799.222,1847.571,1793.73Z" transform="translate(-1838.399 -1770.108)" fill="#e9d6b8"/>
              <path id="Path_3691" data-name="Path 3691" d="M1851.822,1781.966s2.614-5.53,3.532-6.4c.642-.6,4.13-2.947,4.13-2.947a8.167,8.167,0,0,1-2.146,3.128C1855.991,1776.77,1851.822,1781.966,1851.822,1781.966Z" transform="translate(-1841.45 -1771.438)" fill="#e9d6b8"/>
            </g>
            <g id="Group_133" data-name="Group 133" transform="translate(89.816 131.565)">
              <path id="Path_3692" data-name="Path 3692" d="M1964.116,1957.576c-6.832.915-14.33.782-17.791,2.8-4.928,2.869-12.685,12.356-16.607,12.9a10.829,10.829,0,0,0-1.254.322c-1.12.3-2.43.444-2.873.626-.508.209-1.87.969-1.455.447,3.735-4.629,14.837-15.279,16.175-15.806,2.744-1.093,18.186-6.456,24.333-7.265C1971.579,1950.687,1973.333,1956.344,1964.116,1957.576Z" transform="translate(-1924.058 -1948.384)" fill="#e9d6b8"/>
              <path id="Path_3693" data-name="Path 3693" d="M1951.523,1967.45s.034-1.417-1.071-1.5c-1.811-.145-5.273,1.07-6.483,1.555-1.353.543-7.29,4.151-7.29,4.151a8.134,8.134,0,0,0,4.947-1.054C1945.119,1968.491,1951.523,1967.45,1951.523,1967.45Z" transform="translate(-1930.738 -1956.022)" fill="#e9d6b8"/>
              <path id="Path_3694" data-name="Path 3694" d="M1994.433,1944.88a60.546,60.546,0,0,1-.34,7.343c-17.929,2.25-33.224,3.346-33.224,3.346Z" transform="translate(-1943.539 -1944.88)" fill="#e9d6b8"/>
            </g>
            <path id="Path_3695" data-name="Path 3695" d="M2022.467,1942.257c-1.242.763,1.395,8.483,4.13,8.371l2.1.161s18.145.6,17.572-8.77C2046.274,1942.019,2041.983,1933.411,2022.467,1942.257Z" transform="translate(-1886.155 -1809.813)" fill="#163f59"/>
          </g>
          <path id="Path_3696" data-name="Path 3696" d="M1418.223,1664.91l-5.022-1.127a20.578,20.578,0,0,0-24.577,15.583l-1.69,7.529a20.725,20.725,0,0,0-.45,3.067c-.83-.269-13.509,24.05-32.589,37.727a27.62,27.62,0,0,0-12.69,17.591c-3.378,15.081,6.369,30.108,21.774,33.558s30.626-5.978,34.008-21.058a27.578,27.578,0,0,0-3.287-20.234,26.387,26.387,0,0,0,11.081-16.159c.066-.3.119-.592.175-.888l.443,1.636a20.578,20.578,0,0,0,24.58-15.578l3.823-17.07A20.576,20.576,0,0,0,1418.223,1664.91Z" transform="translate(-1252.028 -1646.406)" fill="#0253a2"/>
          <path id="Path_3697" data-name="Path 3697" d="M1729.521,2250.852h13.759l-22.7-219.82h-19.947Z" transform="translate(-1442.602 -1841.029)" fill="#93cef5"/>
          <path id="Path_3698" data-name="Path 3698" d="M1703.461,2041.164l26.7,67.84-7.571-73.011-.51-4.961h-17.434Z" transform="translate(-1444.098 -1841.029)" fill="#86bbd8"/>
          <g id="Group_140" data-name="Group 140" transform="translate(53.552 152.123)">
            <g id="Group_135" data-name="Group 135" transform="translate(0 25.416)">
              <path id="Path_3699" data-name="Path 3699" d="M1286.288,2123.607a18.211,18.211,0,0,1-12.044-4.354c-6.05-5.265-8.672-14.626-7.794-27.821.6-8.911,4.1-17.921,7.814-27.474,6.247-16.061,13.326-34.266,9.623-58.34l6.88-1.058c3.987,25.918-3.777,45.879-10.015,61.922-3.666,9.425-6.834,17.572-7.357,25.41-.712,10.7,1.135,18.329,5.352,22.053a11.556,11.556,0,0,0,9.2,2.585l1.4,6.819A16.216,16.216,0,0,1,1286.288,2123.607Z" transform="translate(-1266.285 -2004.559)" fill="#0054df"/>
            </g>
            <g id="Group_138" data-name="Group 138" transform="translate(16.915 168.931)">
              <g id="Group_136" data-name="Group 136" transform="translate(5.826 30.744)">
                <path id="Path_3700" data-name="Path 3700" d="M1365.208,2374.713l6.779,10.335-56.924,18.235s-3.8-3.636,10.166-10.938C1341.489,2383.834,1365.208,2374.713,1365.208,2374.713Z" transform="translate(-1314.59 -2374.713)" fill="#88bdda"/>
                <path id="Path_3701" data-name="Path 3701" d="M1435.964,2374.713l-6.776,10.335,56.92,18.235s3.8-3.636-10.166-10.938C1459.682,2383.834,1435.964,2374.713,1435.964,2374.713Z" transform="translate(-1375.238 -2374.713)" fill="#88bdda"/>
              </g>
              <rect id="Rectangle_153" data-name="Rectangle 153" width="11.892" height="42.348" transform="translate(55.551)" fill="#88bdda"/>
              <g id="Group_137" data-name="Group 137" transform="translate(12.353 32.923)">
                <path id="Path_3702" data-name="Path 3702" d="M1371.782,2379.341l5.8,9.861-48.725,17.4s-3.255-3.469,8.7-10.44C1351.481,2388.041,1371.782,2379.341,1371.782,2379.341Z" transform="translate(-1328.454 -2379.341)" fill="#acd5f4"/>
                <path id="Path_3703" data-name="Path 3703" d="M1438.676,2379.341l-5.8,9.861,48.73,17.4s3.252-3.469-8.7-10.44C1458.984,2388.041,1438.676,2379.341,1438.676,2379.341Z" transform="translate(-1383.718 -2379.341)" fill="#acd5f4"/>
              </g>
              <path id="Path_3704" data-name="Path 3704" d="M1331.739,2440.919a4.133,4.133,0,1,1-4.132-4.134A4.131,4.131,0,0,1,1331.739,2440.919Z" transform="translate(-1313.465 -2376.819)" fill="#001f46"/>
              <path id="Path_3705" data-name="Path 3705" d="M1532.282,2440.919a4.133,4.133,0,1,1-4.135-4.134A4.133,4.133,0,0,1,1532.282,2440.919Z" transform="translate(-1419.598 -2376.819)" fill="#001f46"/>
              <path id="Path_3706" data-name="Path 3706" d="M1310.482,2440.919a4.133,4.133,0,1,1-4.132-4.134A4.132,4.132,0,0,1,1310.482,2440.919Z" transform="translate(-1302.215 -2376.819)" fill="#367082"/>
              <path id="Path_3707" data-name="Path 3707" d="M1553.534,2440.919a4.133,4.133,0,1,1-4.134-4.134A4.132,4.132,0,0,1,1553.534,2440.919Z" transform="translate(-1430.845 -2376.819)" fill="#367082"/>
            </g>
            <rect id="Rectangle_154" data-name="Rectangle 154" width="8.7" height="15.228" transform="translate(73.91 153.413)" fill="#0054df"/>
            <path id="Path_3708" data-name="Path 3708" d="M1431.174,2249.815a8.489,8.489,0,0,1-8.486,8.487H1417.9a8.489,8.489,0,0,1-8.483-8.487h0a8.483,8.483,0,0,1,8.483-8.479h4.786a8.483,8.483,0,0,1,8.486,8.479Z" transform="translate(-1342.035 -2104.451)" fill="#0054df"/>
            <path id="Path_3709" data-name="Path 3709" d="M1424.125,2219.556c.2-1,.329-7.261.329-8.336,0-6.852-4.427-12.4-9.891-12.4h-110.2c-5.463,0-9.89,5.552-9.89,12.4,0,1.075.12,7.338.325,8.336Z" transform="translate(-1281.202 -2081.948)" fill="#8cc3ff"/>
            <path id="Path_3710" data-name="Path 3710" d="M1292.31,2245.74c0,2.1,1.225,3.794,2.738,3.794H1421.59c1.511,0,2.738-1.7,2.738-3.794h0c0-2.1-1.227-3.8-2.738-3.8H1295.048c-1.513,0-2.738,1.7-2.738,3.8Z" transform="translate(-1280.058 -2104.771)" fill="#0054df"/>
            <g id="Group_139" data-name="Group 139" transform="translate(12.485)">
              <path id="Path_3711" data-name="Path 3711" d="M1304.83,2024.547c2.72.2,19.992.505,22.971.541,18.907.228,35.2-3.322,36.1-7.977a161.388,161.388,0,0,0,.49-58.562c-.8-4.652-17.339-8.2-36.643-7.967-3.038.036-20.668.345-23.437.548A158.4,158.4,0,0,1,1304.83,2024.547Z" transform="translate(-1298.895 -1950.571)" fill="#8cc3ff"/>
              <path id="Path_3712" data-name="Path 3712" d="M1296.144,1951.748c-2.117.024-3.593,1.032-3.3,2.246a158.187,158.187,0,0,1,.591,68.943c-.266,1.218,1.2,2.222,3.27,2.245h0c2.071.026,3.986-.943,4.25-2.161a158.475,158.475,0,0,0-.45-69.111c-.287-1.224-2.239-2.186-4.36-2.162Z" transform="translate(-1292.806 -1951.193)" fill="#0054df"/>
              <path id="Path_3713" data-name="Path 3713" d="M1297.447,2024.819a46.653,46.653,0,0,0,4.956.328c4.12.051,8.362-3.584,9.184-8.164a158.847,158.847,0,0,0-.264-57.672c-.859-4.58-5.207-8.209-9.408-8.16a48.192,48.192,0,0,0-5.054.333A158.289,158.289,0,0,1,1297.447,2024.819Z" transform="translate(-1294.952 -1950.878)" fill="#69adfe"/>
            </g>
          </g>
          <g id="Group_141" data-name="Group 141" transform="translate(182.843 124.9)">
            <path id="Path_3714" data-name="Path 3714" d="M1542.115,1925.041s-7.277,8.195,14.087-1.256,50.378-28.615,50.378-28.615l-51.318,17.2S1545.3,1916.031,1542.115,1925.041Z" transform="translate(-1540.92 -1894.028)" fill="#e2c59c"/>
            <path id="Path_3715" data-name="Path 3715" d="M1641.867,1903.353c10.292-4.182,16.808-.818,21.54-.879a77.627,77.627,0,0,1,9.78.69c-4.083-3.474-7.458-2.248-9.7-2.994s-1.52-.214,2.033-1.971c2.02-1,7.177,1.179,10.646,2.144a9,9,0,0,0,4.486.391,49.269,49.269,0,0,0-8.788-4.239,56.97,56.97,0,0,0-13.258-2.887c-2.551.035-9.533,2.593-14.173,5.235C1639.2,1901.831,1634.452,1906.365,1641.867,1903.353Z" transform="translate(-1592.318 -1893.201)" fill="#e2c59c"/>
            <path id="Path_3716" data-name="Path 3716" d="M1680.719,1893.577s8.7-1.2,10.5-.719c1.258.33,7,2.924,7,2.924a11.093,11.093,0,0,1-5.491-.185C1690.375,1894.691,1680.719,1893.577,1680.719,1893.577Z" transform="translate(-1614.905 -1892.744)" fill="#e2c59c"/>
          </g>
          <path id="Path_3717" data-name="Path 3717" d="M1542.839,1923.329s-19.741,5.946-13.6,17.222c3.484,6.409,8.979,6.9,14.808,3.994,10.835-5.426,22.866-12.169,22.866-12.169l.578-19.092Z" transform="translate(-1351.268 -1778.715)" fill="#feae0f"/>
          <path id="Path_3718" data-name="Path 3718" d="M1519.168,1867.711l-26.765-63.539s-7.355-10.167-12.293-7.916c-7.125,3.24.634,11.616,1.688,16.209,2.152,9.359-7.066,17.3,5.318,39.758,7.122,12.915,12.067,18.9,16.533,27.831,3.075,6.16,10.073,3.413,16.323.288C1531.63,1874.507,1519.168,1867.711,1519.168,1867.711Z" transform="translate(-1324.318 -1716.607)" fill="#feae0f"/>
          <path id="Path_3719" data-name="Path 3719" d="M1480.308,1688.67a40.832,40.832,0,0,1-1.751,5.547c-4.917,12.442-14.952,20.476-23.783,19.765a62.842,62.842,0,0,1-6.331,14.915c-2.739,4.731-9.9,8.764-9.9,8.764-3.47,8.682,31.276,37.75,32.761,36.991,3.153-1.609-2.5-22.49-8.18-28.958-2.669-3.033-5.382-6.608-5.442-8.65-.2-7.166,2.075-8.69,5.526-11.973a16.846,16.846,0,0,1,12.982-2.925,2.334,2.334,0,0,0,1.857-.362,14.5,14.5,0,0,0,1.57-4.055l3.711-16.557A14.54,14.54,0,0,0,1480.308,1688.67Z" transform="translate(-1303.768 -1659.843)" fill="#e9d6b8"/>
          <path id="Path_3720" data-name="Path 3720" d="M1451,1942.063s8.9,8.061,11.406,8.776c3.347.958,12.726-3.1,12.726-3.1s-2.588-41.8-1.626-58.359,4.854-21.355,4.412-26.473c-.721-8.178,5.919-12.351,3.958-18.587s-6.886-28.642-7.224-25.532c-2.89,26.495-13.051,6.064-15.081,2.863C1458.463,1819.9,1451,1942.063,1451,1942.063Z" transform="translate(-1310.491 -1728.551)" fill="#73a9ff"/>
          <path id="Path_3721" data-name="Path 3721" d="M1488.092,1803.306s11.778,8.638,11.62,12.624,6.086,15.779,3.554,33.5c-2.891,20.234-3.965,33.818-3.372,46.726s6.542,24.093,6.743,39.985c.161,12.447-2.691,13.555-2.691,13.555a10.326,10.326,0,0,1-10.109-2.219c-4.617-4.255-3.8-46.859-3.1-57.582s4.043-35.98,4.818-43.356a78.157,78.157,0,0,0-.962-20.713,87.847,87.847,0,0,0-4.943-17.962c-.232-.575-3.294-3.026-3.487-3.474C1485.329,1802.457,1487.129,1802.224,1488.092,1803.306Z" transform="translate(-1328.985 -1720.171)" fill="#fec00f"/>
          <path id="Path_3722" data-name="Path 3722" d="M1579.349,2384.716,1574,2425.7l23.1,10.6,12.825,2.705-22.757-16.99,7.445-36.98Z" transform="translate(-1375.586 -2028.208)" fill="#e9d6b8"/>
          <path id="Path_3723" data-name="Path 3723" d="M1570.793,2473.811l5.011,1.307,3.365-3.026,18.455,8.961,16.366,3.745a3.014,3.014,0,0,0-.347-1.976c-2.059-2.591-13.519-8.377-13.519-8.377s-.185,3.8-1.815,3.905-15.77-7.065-19.038-9.062c-5.629-3.44-6.683-5.576-7.113-5.312C1571.023,2464.683,1570.793,2473.811,1570.793,2473.811Z" transform="translate(-1373.886 -2070.143)" fill="#161711"/>
          <path id="Path_3724" data-name="Path 3724" d="M1703.794,2258.85l18.349,34.929,25.386-1.248,12.625-3.507-28.031-4.585-15.308-29.846Z" transform="translate(-1444.274 -1959.344)" fill="#e9d6b8"/>
          <path id="Path_3725" data-name="Path 3725" d="M1742.143,2336.532l5.048-1.151,1.591-4.238,22.763-.326,13.59-3.083a11.486,11.486,0,0,0-2.656-2.188c-3.027-1.219-13.77-1.848-13.77-1.848s1.13,2.971-.267,3.823-17.038,1.355-20.864,1.085c-6.584-.453-8.5-1.863-8.759-1.43C1738.137,2328.325,1742.143,2336.532,1742.143,2336.532Z" transform="translate(-1462.768 -1995.916)" fill="#161711"/>
          <path id="Path_3726" data-name="Path 3726" d="M1382.616,2041.758l13.693,5.953,5.953,17.862,88.079-14.5s8.973-2.765,14.684,11.4c8.131,20.174,28.825,82.884,28.825,82.884l-13.1,13.694-41.085-70.854s-84.181,39.485-111.937,30.962c-10.65-3.271-18.786-22.083-17.267-41.087a243.88,243.88,0,0,1,4.169-28.578Z" transform="translate(-1257.184 -1846.706)" fill="#194866"/>
          <path id="Path_3727" data-name="Path 3727" d="M1444.263,2162.854l67.364-4.846-5.791,103.945,19.862.632,14.676-121.734s-3.96-18.118-16.823-15.384S1479.555,2152.05,1444.263,2162.854Z" transform="translate(-1306.923 -1890.858)" fill="#163f59"/>
          <path id="Path_3728" data-name="Path 3728" d="M1354.14,2005.138s30.347-42.331,36.773-64.964c7.67-27.021,2.72-59.157,3.394-70.073,1.244-20.064.965-58.771,1.233-63.59s-3.4-9.749-3.4-9.749-3.747-12.272-10.539-11.367c-5.973.8-15.186,9.109-20.967,12.964-5.648,3.768-5.015,74.478-5.3,78.038-1.019,12.846-9.144,25.32-14.444,37.869-12.49,29.586-12.49,62.681-12.49,62.681S1333.329,2000.773,1354.14,2005.138Z" transform="translate(-1245.605 -1711.006)" fill="#fec00f"/>
          <path id="Path_3729" data-name="Path 3729" d="M1430.475,2001.883l-35.25-12.636s2.452,20.428,3.27,28.192-1.226,19.2,5.311,20.018,9.806-.406,3.677,4.09-4.085,8.17-1.226,11.031-6.537,34.728-6.537,34.728.93.474,3.677,2.044c8.707-13.767,19.507-29.386,22.882-41.268C1430.637,2032.723,1430.92,2015.711,1430.475,2001.883Z" transform="translate(-1280.971 -1818.916)" fill="#feae0f"/>
          <g id="Group_142" data-name="Group 142" transform="translate(150.227 178.889)">
            <path id="Path_3730" data-name="Path 3730" d="M1485.4,2322.444h-13.759l22.7-219.82h19.944Z" transform="translate(-1471.637 -2057.807)" fill="#93cef5"/>
            <path id="Path_3731" data-name="Path 3731" d="M1537.9,2112.756l-8.749,66.57-10.375-71.741.509-4.961h17.433Z" transform="translate(-1496.581 -2057.807)" fill="#86bbd8"/>
            <path id="Path_3732" data-name="Path 3732" d="M2053.348,2322.444h-13.754l22.7-219.82h19.946Z" transform="translate(-1772.215 -2057.807)" fill="#93cef5"/>
            <path id="Path_3733" data-name="Path 3733" d="M2105.842,2112.756l-8.747,66.57-10.383-71.741.515-4.961h17.434Z" transform="translate(-1797.151 -2057.807)" fill="#86bbd8"/>
            <path id="Path_3734" data-name="Path 3734" d="M2343.134,2322.444h13.758l-22.7-219.82h-19.947Z" transform="translate(-1917.568 -2057.807)" fill="#93cef5"/>
            <path id="Path_3735" data-name="Path 3735" d="M2317.073,2112.756l26.7,67.839-7.571-73.01-.51-4.961h-17.434Z" transform="translate(-1919.064 -2057.807)" fill="#86bbd8"/>
            <path id="Path_3736" data-name="Path 3736" d="M1485.012,2045.292h428.1l97.145-37.867h-428.1Z" transform="translate(-1478.715 -2007.425)" fill="#d4edff"/>
            <rect id="Rectangle_155" data-name="Rectangle 155" width="430.153" height="12.846" transform="translate(6.297 37.681)" fill="#e9f6ff"/>
          </g>
          <path id="Path_3737" data-name="Path 3737" d="M1441.237,1775.746s8.989,11.851,10.622,22.882-2.859,70.686-2.859,70.686l-3.208-52.422,2.391-8.051-4.085-.814s-3.677-20.431-6.537-23.7-3.269-4.491-3.269-4.491Z" transform="translate(-1301.646 -1705.926)" fill="#feae0f"/>
          <path id="Path_3738" data-name="Path 3738" d="M1479.458,1793.58s11.827,25.087,12.236,38.163-4.086,46.172-4.086,46.172,6.128-43.72,7.764-43.72-1.635-6.536-1.635-6.536l2.451-2.045s-5.077-19.084-7.354-25.333C1486.049,1792.638,1479.458,1793.58,1479.458,1793.58Z" transform="translate(-1325.549 -1715.344)" fill="#feae0f"/>
        </g>
      </g>
      <g id="Group_145" data-name="Group 145" transform="translate(259.899)">
        <path id="Path_3739" data-name="Path 3739" d="M1767.88,1604.915c0-18.689-11.254-33.838-31.641-33.838s-31.641,15.149-31.641,33.838c0,14.576,10.22,19.639,18.9,31.729,1.716,2.391,0,11.781,0,11.781h25.492s-1.719-9.391,0-11.781C1757.66,1624.549,1767.88,1619.493,1767.88,1604.915Z" transform="translate(-1704.598 -1540.783)" fill="#fec12f"/>
        <path id="Path_3740" data-name="Path 3740" d="M1743.8,1735.377v3.516a10.546,10.546,0,0,0,10.547,10.546h5.274a10.547,10.547,0,0,0,10.547-10.546v-3.516Z" transform="translate(-1725.346 -1627.735)" fill="#3d7aa8"/>
        <path id="Path_3741" data-name="Path 3741" d="M1742.144,1634.693l4.031-5.273,4.045,5.273,4.035-5.273,4.043,5.273,4.045-5.273,4.043,5.273,4.049-5.273,4.057,5.273" transform="translate(-1724.468 -1571.66)" fill="none" stroke="#f4da80" stroke-miterlimit="10" stroke-width="5.601"/>
        <path id="Path_3742" data-name="Path 3742" d="M1752.046,1650.42l5.843,17.429v22.124" transform="translate(-1729.709 -1582.773)" fill="none" stroke="#f4da80" stroke-miterlimit="10" stroke-width="5.601"/>
        <path id="Path_3743" data-name="Path 3743" d="M1787.488,1650.42l-5.846,17.429v22.124" transform="translate(-1745.372 -1582.773)" fill="none" stroke="#f4da80" stroke-miterlimit="10" stroke-width="5.601"/>
        <line id="Line_1" data-name="Line 1" x1="8.086" y2="16.508" transform="translate(50.971 4.825)" fill="none" stroke="#f4da80" stroke-miterlimit="10" stroke-width="5.601"/>
        <line id="Line_2" data-name="Line 2" x1="2.244" y2="18.245" transform="translate(34.116)" fill="none" stroke="#f4da80" stroke-miterlimit="10" stroke-width="5.601"/>
        <line id="Line_3" data-name="Line 3" x2="5.485" y2="17.544" transform="translate(10.741 2.328)" fill="none" stroke="#f4da80" stroke-miterlimit="10" stroke-width="5.601"/>
        <rect id="Rectangle_157" data-name="Rectangle 157" width="16.481" height="2.741" transform="translate(25.635 109.457)" fill="#34688f"/>
        <rect id="Rectangle_158" data-name="Rectangle 158" width="11.865" height="2.74" transform="translate(25.635 114.401)" fill="#34688f"/>
        <path id="Path_3744" data-name="Path 3744" d="M1752.246,1760.239a10.453,10.453,0,0,0,6.572,2.357h5.274a10.462,10.462,0,0,0,6.574-2.357Z" transform="translate(-1729.815 -1640.892)" fill="#34688f"/>
      </g>
      <g id="Group_146" data-name="Group 146" transform="translate(190.417 86.234)">
        <path id="Path_3745" data-name="Path 3745" d="M1634.917,1744.842l2.67-10.617-5.382-2.651a34.791,34.791,0,0,0-.292-4.7l5.286-2.809-3-10.526-6.618.44a35.072,35.072,0,0,0-2.271-3.478l3.478-5.566-7.859-7.618-5.879,3.935a35.447,35.447,0,0,0-3.354-1.754l.243-6.928-10.613-2.668-3.173,6.446a34.576,34.576,0,0,0-3.715.1l-3.273-6.157-10.526,3,.462,6.957a34.96,34.96,0,0,0-3.395,2l-5.673-3.546-7.616,7.858,3.61,5.393a35.422,35.422,0,0,0-2.209,3.81l-6.147-.215-2.67,10.614,5.238,2.578a34.727,34.727,0,0,0-.014,5.008l-4.838,2.57,3,10.527,5.2-.343a34.685,34.685,0,0,0,2.793,4.818l-2.582,4.13,7.858,7.618,3.961-2.651a35.392,35.392,0,0,0,5.188,2.885l-.158,4.51,10.614,2.674,2.038-4.142a34.861,34.861,0,0,0,6.018-.2l2.1,3.956,10.527-3-.32-4.818a34.768,34.768,0,0,0,4.872-3.13l4.054,2.534,7.618-7.859-2.972-4.44a35.151,35.151,0,0,0,2.379-4.734Zm-33.63.952a15.007,15.007,0,1,1,10.326-18.541A15.006,15.006,0,0,1,1601.287,1745.795Z" transform="translate(-1557.007 -1689.902)" fill="#acd4f8"/>
        <path id="Path_3746" data-name="Path 3746" d="M1609.895,1729.568a23.2,23.2,0,1,0,28.665,15.962A23.2,23.2,0,0,0,1609.895,1729.568Zm11.388,40a18.387,18.387,0,1,1,12.648-22.717A18.383,18.383,0,0,1,1621.282,1769.566Z" transform="translate(-1576.076 -1710.422)" fill="#d4edff"/>
      </g>
      <g id="Group_237" data-name="Group 237" transform="translate(210.782 174.059)">
        <g id="Group_236" data-name="Group 236">
          <g id="Group_235" data-name="Group 235" style="isolation: isolate">
            <g id="Group_147" data-name="Group 147" transform="translate(75.219 37.418)">
              <path id="Path_3747" data-name="Path 3747" d="M1760.044,1955.938c.245.364.493.726.733,1.091C1760.537,1956.664,1760.291,1956.3,1760.044,1955.938Z" transform="translate(-1760.044 -1955.938)" fill="#ced6d9"/>
            </g>
            <g id="Group_148" data-name="Group 148" transform="translate(38.022 10.237)">
              <path id="Path_3748" data-name="Path 3748" d="M1681.741,1898.4c-.236-.069-.474-.135-.71-.2Q1681.385,1898.3,1681.741,1898.4Z" transform="translate(-1681.031 -1898.202)" fill="#94999b"/>
            </g>
            <g id="Group_151" data-name="Group 151" transform="translate(75.219 28.803)" style="isolation: isolate">
              <g id="Group_150" data-name="Group 150" clip-path="url(#clip-path-2)">
                <g id="Group_149" data-name="Group 149" style="isolation: isolate">
                  <path id="Path_3749" data-name="Path 3749" d="M1767.816,1937.64l-7.772,8.614c.247.362.493.726.733,1.091l7.771-8.617q-.359-.545-.732-1.088" transform="translate(-1760.044 -1937.64)" fill="#a9b0b2"/>
                </g>
              </g>
            </g>
            <g id="Group_154" data-name="Group 154" transform="translate(78.677 34.481)" style="isolation: isolate">
              <g id="Group_153" data-name="Group 153" clip-path="url(#clip-path-3)">
                <g id="Group_152" data-name="Group 152" style="isolation: isolate">
                  <path id="Path_3751" data-name="Path 3751" d="M1775.159,1949.7l-7.771,8.616c.283.54.565,1.081.836,1.628l7.772-8.615q-.407-.818-.836-1.628" transform="translate(-1767.388 -1949.701)" fill="#a9b0b2"/>
                </g>
              </g>
            </g>
            <g id="Group_155" data-name="Group 155" transform="translate(86.448 34.481)">
              <path id="Path_3753" data-name="Path 3753" d="M1783.9,1949.7c.288.545.565,1.089.837,1.628Q1784.324,1950.511,1783.9,1949.7Z" transform="translate(-1783.895 -1949.701)" fill="#94999b"/>
            </g>
            <g id="Group_158" data-name="Group 158" transform="translate(80.992 39.338)" style="isolation: isolate">
              <g id="Group_157" data-name="Group 157" clip-path="url(#clip-path-4)">
                <g id="Group_156" data-name="Group 156" style="isolation: isolate">
                  <path id="Path_3754" data-name="Path 3754" d="M1780.079,1960.016l-7.773,8.616c.016.035.033.074.048.111l7.772-8.618c-.015-.038-.03-.073-.047-.11" transform="translate(-1772.306 -1960.016)" fill="#adb4b6"/>
                </g>
              </g>
            </g>
            <g id="Group_161" data-name="Group 161" transform="translate(38.022 1.621)" style="isolation: isolate">
              <g id="Group_160" data-name="Group 160" clip-path="url(#clip-path-5)">
                <g id="Group_159" data-name="Group 159" style="isolation: isolate">
                  <path id="Path_3756" data-name="Path 3756" d="M1688.8,1879.9l-7.772,8.616c.236.063.474.128.71.2l7.774-8.619c-.238-.066-.476-.131-.712-.195" transform="translate(-1681.031 -1879.901)" fill="#979d9f"/>
                </g>
              </g>
            </g>
            <g id="Group_164" data-name="Group 164" transform="translate(32.914 0.537)" style="isolation: isolate">
              <g id="Group_163" data-name="Group 163" clip-path="url(#clip-path-6)">
                <g id="Group_162" data-name="Group 162" style="isolation: isolate">
                  <path id="Path_3758" data-name="Path 3758" d="M1677.953,1877.6l-7.772,8.615c.379.059.754.124,1.132.192l7.772-8.615q-.564-.106-1.131-.192" transform="translate(-1670.18 -1877.598)" fill="#393ca6"/>
                </g>
              </g>
            </g>
            <g id="Group_165" data-name="Group 165" transform="translate(18.702 9.143)">
              <path id="Path_3760" data-name="Path 3760" d="M1641.915,1895.877c-.653.112-1.3.247-1.922.4C1640.624,1896.129,1641.255,1895.99,1641.915,1895.877Z" transform="translate(-1639.993 -1895.877)" fill="#9969f3"/>
            </g>
            <g id="Group_168" data-name="Group 168" transform="translate(84.474 52.946)" style="isolation: isolate">
              <g id="Group_167" data-name="Group 167" clip-path="url(#clip-path-7)">
                <g id="Group_166" data-name="Group 166" style="isolation: isolate">
                  <path id="Path_3761" data-name="Path 3761" d="M1787.475,1988.923l-7.772,8.618c.021.225.041.454.056.68l7.774-8.617c-.018-.225-.037-.453-.058-.681" transform="translate(-1779.703 -1988.923)" fill="#c8a756"/>
                </g>
              </g>
            </g>
            <g id="Group_169" data-name="Group 169" transform="translate(92.246 52.946)">
              <path id="Path_3763" data-name="Path 3763" d="M1796.211,1988.923q.031.342.058.681Q1796.25,1989.269,1796.211,1988.923Z" transform="translate(-1796.211 -1988.923)" fill="#f3cc68"/>
            </g>
            <g id="Group_172" data-name="Group 172" transform="translate(84.577 54.362)" style="isolation: isolate">
              <g id="Group_171" data-name="Group 171" clip-path="url(#clip-path-8)">
                <g id="Group_170" data-name="Group 170" transform="translate(-0.579)" style="isolation: isolate">
                  <path id="Path_3764" data-name="Path 3764" d="M1787.042,1991.931l-7.772,8.615a31.312,31.312,0,0,1-.578,7.681l7.771-8.618a31.243,31.243,0,0,0,.579-7.679" transform="translate(-1778.692 -1991.931)" fill="#c8a756"/>
                </g>
              </g>
            </g>
            <g id="Group_173" data-name="Group 173" transform="translate(32.913 0.537)">
              <path id="Path_3766" data-name="Path 3766" d="M1677.953,1877.6l-7.773,8.615,2.9,12.4,7.772-8.616Z" transform="translate(-1670.18 -1877.598)" fill="#c5c7a0"/>
            </g>
            <g id="Group_176" data-name="Group 176" transform="translate(18.702 0.527)" style="isolation: isolate">
              <g id="Group_175" data-name="Group 175" clip-path="url(#clip-path-9)">
                <g id="Group_174" data-name="Group 174" style="isolation: isolate">
                  <path id="Path_3767" data-name="Path 3767" d="M1647.765,1877.974l-7.772,8.616c.626-.151,1.269-.286,1.922-.4l7.771-8.615c-.652.11-1.295.248-1.921.4" transform="translate(-1639.993 -1877.576)" fill="#734fb8"/>
                </g>
              </g>
            </g>
            <g id="Group_179" data-name="Group 179" transform="translate(27.32 12.581)" style="isolation: isolate">
              <g id="Group_178" data-name="Group 178" clip-path="url(#clip-path-10)">
                <g id="Group_177" data-name="Group 177" style="isolation: isolate">
                  <path id="Path_3769" data-name="Path 3769" d="M1666.071,1903.526l-7.773,8.616a26,26,0,0,1,8.493.01l7.772-8.616a26.011,26.011,0,0,0-8.492-.01" transform="translate(-1658.298 -1903.182)" fill="#f4901e"/>
                </g>
              </g>
            </g>
            <g id="Group_180" data-name="Group 180" transform="translate(28.405)">
              <path id="Path_3771" data-name="Path 3771" d="M1674.016,1877.186q-.566-.105-1.135-.2a36.069,36.069,0,0,0-12.276-.008l6.687,12.4a26.017,26.017,0,0,1,8.492.01l-2.9-12.4Q1673.452,1877.079,1674.016,1877.186Z" transform="translate(-1660.604 -1876.457)" fill="#fec12f"/>
            </g>
            <g id="Group_181" data-name="Group 181" transform="translate(20.633 0.521)">
              <path id="Path_3772" data-name="Path 3772" d="M1651.867,1877.564l-7.772,8.617,6.687,12.4,7.773-8.616Z" transform="translate(-1644.095 -1877.564)" fill="#3fb94a"/>
            </g>
            <g id="Group_184" data-name="Group 184" transform="translate(17.371 12.927)" style="isolation: isolate">
              <g id="Group_183" data-name="Group 183" clip-path="url(#clip-path-11)">
                <g id="Group_182" data-name="Group 182">
                  <path id="Path_3773" data-name="Path 3773" d="M1644.936,1909.139l-7.771,8.617a16.986,16.986,0,0,1,9.945-5.224l7.771-8.616a16.99,16.99,0,0,0-9.946,5.223" transform="translate(-1637.165 -1903.916)" fill="#96a2bd"/>
                </g>
              </g>
            </g>
            <path id="Path_3775" data-name="Path 3775" d="M1702.564,1928.124c-.017-.018-.032-.039-.049-.058-.447-.524-.908-1.033-1.376-1.536-.111-.118-.224-.239-.338-.358-.25-.266-.512-.522-.769-.782-.387-.387-.777-.772-1.173-1.146q-.359-.335-.721-.664c-.4-.363-.81-.718-1.221-1.068-.239-.2-.473-.4-.713-.6-.5-.406-1.008-.8-1.517-1.184-.173-.13-.342-.266-.516-.394q-1.031-.758-2.1-1.452c-.547-.36-1.1-.7-1.654-1.036-.146-.086-.292-.171-.438-.256-.457-.267-.919-.524-1.381-.774-.144-.077-.288-.156-.434-.232-.583-.307-1.17-.6-1.759-.876-.073-.034-.147-.066-.217-.1-.536-.248-1.075-.48-1.612-.7-.116-.048-.231-.1-.348-.146q-.873-.349-1.747-.652c-.118-.042-.238-.082-.355-.119-.534-.181-1.067-.35-1.6-.5-.083-.024-.167-.05-.25-.076q-.88-.243-1.759-.441c-.13-.03-.263-.057-.4-.085-.6-.126-1.191-.242-1.783-.336l7.772-8.616c.591.092,1.183.209,1.78.336.134.026.269.055.4.086.583.132,1.168.275,1.75.439.089.027.175.054.26.079q.8.23,1.592.5c.122.04.242.08.36.121q.873.3,1.743.654c.12.047.239.1.36.147.529.218,1.056.447,1.582.69.081.038.167.074.249.113.035.017.071.032.107.047.551.26,1.1.537,1.639.821.149.079.3.162.445.242q.691.368,1.373.768c.147.085.291.167.439.255.532.319,1.063.645,1.583.987.028.016.054.035.078.051q1.058.7,2.087,1.45c.177.128.349.267.524.4.509.382,1.015.774,1.51,1.177.086.07.176.134.26.2.154.129.3.267.455.4.41.349.817.7,1.218,1.065q.368.333.725.668c.4.375.784.756,1.167,1.145.149.147.3.284.448.435.112.115.219.234.327.349s.222.234.332.353c.471.5.935,1.016,1.385,1.542.007.011.016.02.022.03.446.52.871,1.051,1.294,1.589.093.121.187.242.281.364s.184.232.271.35q.5.673.984,1.365a43.33,43.33,0,0,1,2.574,4.188c.366.677.7,1.352,1.02,2.023,0,.01.012.021.017.035.27.574.515,1.147.748,1.717.055.134.108.267.16.4.231.581.45,1.163.641,1.737.011.032.021.067.032.1q.273.825.492,1.637c.036.127.072.253.1.38.147.56.279,1.115.391,1.667.015.079.027.16.044.24.095.494.175.984.243,1.471.013.114.032.227.047.339.01.078.024.156.032.232.027.229.032.45.053.674.03.332.063.667.08.995.015.282.015.557.019.837,0,.321.011.642,0,.958-.007.275-.027.545-.044.815-.02.31-.037.618-.071.922-.028.268-.069.532-.106.8-.043.294-.085.588-.143.876-.016.089-.024.187-.044.276q-.1.486-.227.958c-.007.031-.013.065-.023.095-.122.46-.267.908-.423,1.349-.038.114-.081.224-.123.335q-.215.569-.465,1.113c-.028.065-.054.13-.084.192-.011.025-.024.054-.035.079-.184.381-.386.749-.6,1.11-.048.085-.1.169-.149.25-.234.382-.475.754-.739,1.113-.035.047-.069.091-.1.136-.142.187-.279.371-.428.554s-.3.356-.459.531l-7.772,8.615c.318-.351.616-.721.9-1.1.028-.037.056-.074.086-.111.264-.361.509-.737.744-1.119.052-.084.1-.168.148-.252.225-.385.435-.776.629-1.183.033-.07.061-.142.095-.211.163-.356.314-.722.455-1.091.041-.116.085-.23.126-.346.156-.441.3-.886.422-1.345.01-.035.016-.069.025-.1.1-.4.189-.812.269-1.224.056-.291.1-.588.143-.888.039-.26.077-.521.106-.786.033-.305.052-.617.071-.929.017-.268.037-.535.043-.807.009-.32,0-.643,0-.966-.005-.277-.005-.551-.018-.831-.017-.326-.048-.66-.078-.989-.029-.3-.048-.609-.087-.916-.013-.11-.032-.221-.046-.332-.069-.489-.15-.983-.246-1.481-.016-.078-.026-.156-.043-.233-.11-.552-.244-1.109-.391-1.669-.033-.126-.069-.253-.1-.379-.148-.541-.31-1.09-.493-1.64-.01-.033-.02-.064-.031-.1-.193-.576-.411-1.157-.644-1.738-.051-.133-.1-.264-.158-.394-.238-.585-.489-1.169-.767-1.758q-.471-1.006-1.017-2.02a43.913,43.913,0,0,0-2.578-4.19c-.4-.578-.819-1.143-1.247-1.7-.1-.129-.2-.259-.3-.385C1703.414,1929.152,1703,1928.632,1702.564,1928.124Z" transform="translate(-1640.526 -1890.999)" fill="#bfd8f1"/>
            <g id="Group_187" data-name="Group 187" transform="translate(78.427 54.487)" style="isolation: isolate">
              <g id="Group_186" data-name="Group 186" clip-path="url(#clip-path-12)">
                <g id="Group_185" data-name="Group 185" transform="translate(0 -0.124)" style="isolation: isolate">
                  <path id="Path_3776" data-name="Path 3776" d="M1787.042,1991.931l-7.772,8.615a31.312,31.312,0,0,1-.578,7.681l7.771-8.618a31.243,31.243,0,0,0,.579-7.679" transform="translate(-1773.121 -1991.931)" fill="#c8a756"/>
                  <path id="Path_3777" data-name="Path 3777" d="M1784.213,2008.242l-7.771,8.617a25.609,25.609,0,0,1-2,5.973l7.772-8.615a25.547,25.547,0,0,0,2-5.975" transform="translate(-1770.871 -2000.563)" fill="#c5a555"/>
                  <path id="Path_3778" data-name="Path 3778" d="M1778.943,2020.934l-7.772,8.615a22.818,22.818,0,0,1-2.908,4.559l7.774-8.618a22.87,22.87,0,0,0,2.906-4.556" transform="translate(-1767.601 -2007.28)" fill="#c2a354"/>
                  <path id="Path_3779" data-name="Path 3779" d="M1775.293,2030.612l-7.774,8.618q-.321.39-.661.767l7.773-8.615c.226-.252.446-.508.662-.771" transform="translate(-1766.858 -2012.402)" fill="#bfa153"/>
                </g>
              </g>
            </g>
            <g id="Group_188" data-name="Group 188" transform="translate(40.686 0.537)">
              <path id="Path_3781" data-name="Path 3781" d="M1728.486,1905.12c-8.858-12.759-22.071-22.4-35.977-26.243l-.712-.195c-.419-.112-.837-.219-1.26-.321-.3-.071-.591-.137-.89-.2-.61-.135-1.218-.264-1.827-.376q-.564-.106-1.131-.192l2.9,12.4c10.621,1.647,21.946,9.006,29.034,19.218a43.293,43.293,0,0,1,2.574,4.188c8.287,15.36,3.749,29.769-10.125,32.189-5.519.965-11.68-.144-17.622-2.757l-1.18,11.2c8.6,3.78,17.51,5.347,25.49,3.955.883-.154,1.731-.353,2.564-.579.216-.051.427-.11.637-.168.624-.179,1.232-.381,1.822-.591.317-.121.633-.242.947-.367s.606-.25.9-.384c9.336-4.267,14.2-13.369,13.721-24.481-.011-.284-.026-.509-.045-.735s-.037-.453-.058-.681a43.735,43.735,0,0,0-2.812-11.954c-.22-.571-.421-1.059-.622-1.545-.134-.314-.214-.511-.3-.714-.126-.293-.271-.588-.4-.879-.192-.419-.383-.845-.589-1.273-.081-.155-.163-.311-.24-.471-.271-.539-.548-1.083-.836-1.628-.647-1.193-1.2-2.144-1.776-3.089-.078-.129-.162-.264-.243-.4-.226-.37-.462-.735-.705-1.1s-.487-.726-.732-1.088C1728.826,1905.614,1728.657,1905.367,1728.486,1905.12Z" transform="translate(-1686.69 -1877.598)" fill="#e9f6ff"/>
            </g>
            <g id="Group_189" data-name="Group 189" transform="translate(0.186 22.224)">
              <path id="Path_3782" data-name="Path 3782" d="M1608.432,1923.665l-7.771,8.615,13.02,5.726,7.772-8.617Z" transform="translate(-1600.661 -1923.665)" fill="#2dbc42"/>
            </g>
            <g id="Group_192" data-name="Group 192" transform="translate(0.176 20.043)" style="isolation: isolate">
              <g id="Group_191" data-name="Group 191" clip-path="url(#clip-path-13)">
                <g id="Group_190" data-name="Group 190" transform="translate(-0.176)" style="isolation: isolate">
                  <path id="Path_3783" data-name="Path 3783" d="M1608.532,1919.032l-7.772,8.617a32.81,32.81,0,0,0-.26,9.6l7.773-8.617a32.754,32.754,0,0,1,.259-9.6" transform="translate(-1600.267 -1919.032)" fill="#613dcd"/>
                </g>
              </g>
            </g>
            <g id="Group_195" data-name="Group 195" transform="translate(0.176 20.043)" style="isolation: isolate">
              <g id="Group_194" data-name="Group 194" clip-path="url(#clip-path-13)">
                <g id="Group_193" data-name="Group 193" transform="translate(-0.176)" style="isolation: isolate">
                  <path id="Path_3785" data-name="Path 3785" d="M1608.532,1919.032l-7.772,8.617a32.81,32.81,0,0,0-.26,9.6l7.773-8.617a32.754,32.754,0,0,1,.259-9.6" transform="translate(-1600.267 -1919.032)" fill="#c9c4bb"/>
                </g>
              </g>
            </g>
            <g id="Group_198" data-name="Group 198" transform="translate(0.186 7.998)" style="isolation: isolate">
              <path id="Path_3787" data-name="Path 3787" d="M1614.311,1893.445l-7.77,8.616a23.62,23.62,0,0,0-5.573,12.047c-.127.709-.229,1.439-.307,2.179l7.771-8.615q.119-1.114.308-2.181A23.635,23.635,0,0,1,1614.311,1893.445Z" transform="translate(-1600.661 -1893.445)" fill="#96a2bd"/>
              <g id="Group_197" data-name="Group 197" clip-path="url(#clip-path-15)">
                <g id="Group_196" data-name="Group 196" style="isolation: isolate">
                  <path id="Path_3788" data-name="Path 3788" d="M1620.219,1893.445l-7.77,8.616c-.216.238-.422.48-.624.724l7.772-8.619c.2-.243.411-.485.623-.721" transform="translate(-1606.569 -1893.445)" fill="#1f70be"/>
                  <path id="Path_3789" data-name="Path 3789" d="M1616.5,1894.977l-7.772,8.619a21.694,21.694,0,0,0-2.758,4.33l7.774-8.618a21.665,21.665,0,0,1,2.756-4.332" transform="translate(-1603.469 -1894.256)" fill="#96a2bd"/>
                  <path id="Path_3790" data-name="Path 3790" d="M1611.471,1904.178l-7.774,8.617a25.923,25.923,0,0,0-2.018,6.077l7.772-8.617a25.717,25.717,0,0,1,2.02-6.077" transform="translate(-1601.2 -1899.125)" fill="#96a2bd"/>
                  <path id="Path_3791" data-name="Path 3791" d="M1608.912,1917.086l-7.772,8.617c-.061.3-.119.608-.172.916-.127.709-.229,1.439-.307,2.179l7.771-8.615q.119-1.114.308-2.181c.053-.308.111-.613.172-.916" transform="translate(-1600.661 -1905.957)" fill="#96a2bd"/>
                </g>
              </g>
            </g>
            <g id="Group_199" data-name="Group 199" transform="translate(5.991 45.108)">
              <path id="Path_3793" data-name="Path 3793" d="M1620.764,1974.235l-7.771,8.615,11.195-1.961,7.771-8.616Z" transform="translate(-1612.993 -1972.272)" fill="#bb8f37"/>
            </g>
            <g id="Group_202" data-name="Group 202" transform="translate(5.987 47.065)" style="isolation: isolate">
              <g id="Group_201" data-name="Group 201" clip-path="url(#clip-path-16)">
                <g id="Group_200" data-name="Group 200" style="isolation: isolate">
                  <path id="Path_3794" data-name="Path 3794" d="M1620.754,1976.431l-7.77,8.615c.394.734.805,1.446,1.221,2.158l7.772-8.616c-.417-.71-.827-1.426-1.223-2.157" transform="translate(-1612.984 -1976.431)" fill="#3bcaab"/>
                </g>
              </g>
            </g>
            <g id="Group_205" data-name="Group 205" transform="translate(5.991 47.07)" style="isolation: isolate">
              <g id="Group_204" data-name="Group 204" clip-path="url(#clip-path-17)">
                <g id="Group_203" data-name="Group 203" style="isolation: isolate">
                  <path id="Path_3796" data-name="Path 3796" d="M1620.764,1976.441l-7.771,8.615c.39.729.8,1.443,1.217,2.153l7.772-8.616c-.422-.71-.827-1.425-1.218-2.152" transform="translate(-1612.993 -1976.441)" fill="#5d6572"/>
                </g>
              </g>
            </g>
            <g id="Group_208" data-name="Group 208" transform="translate(0 22.229)" style="isolation: isolate">
              <g id="Group_207" data-name="Group 207" clip-path="url(#clip-path-18)">
                <g id="Group_206" data-name="Group 206" transform="translate(0.001 -2.186)" style="isolation: isolate">
                  <path id="Path_3798" data-name="Path 3798" d="M1608.532,1919.032l-7.772,8.617a32.81,32.81,0,0,0-.26,9.6l7.773-8.617a32.754,32.754,0,0,1,.259-9.6" transform="translate(-1600.267 -1919.032)" fill="#c9c9c9"/>
                  <path id="Path_3799" data-name="Path 3799" d="M1608.533,1939.43l-7.773,8.616a46.7,46.7,0,0,0,4.282,14.512l7.774-8.617a46.586,46.586,0,0,1-4.282-14.512" transform="translate(-1600.528 -1929.827)" fill="#ccc"/>
                  <path id="Path_3800" data-name="Path 3800" d="M1617.628,1970.255l-7.773,8.617q.682,1.448,1.468,2.907c.409.764.84,1.513,1.28,2.251l7.772-8.615c-.441-.737-.872-1.489-1.281-2.252q-.788-1.459-1.466-2.907" transform="translate(-1605.341 -1946.141)" fill="#c9c9c9"/>
                </g>
              </g>
            </g>
            <g id="Group_211" data-name="Group 211" transform="translate(0 22.229)">
              <path id="Path_3802" data-name="Path 3802" d="M1606.248,1957.128c.41.764.84,1.513,1.28,2.251l7.772-8.615c-.441-.737-.871-1.489-1.281-2.252-4.764-8.831-6.592-17.446-5.805-24.836q-3.883,4.308-7.772,8.616C1599.656,1939.683,1601.483,1948.3,1606.248,1957.128Z" transform="translate(-1600.266 -1923.675)" fill="#35a3bf"/>
              <g id="Group_210" data-name="Group 210" clip-path="url(#clip-path-19)">
                <g id="Group_209" data-name="Group 209" transform="translate(0.001 -2.186)" style="isolation: isolate">
                  <path id="Path_3803" data-name="Path 3803" d="M1608.532,1919.032l-7.772,8.617a32.81,32.81,0,0,0-.26,9.6l7.773-8.617a32.754,32.754,0,0,1,.259-9.6" transform="translate(-1600.267 -1919.032)" fill="#35a3bf"/>
                  <path id="Path_3804" data-name="Path 3804" d="M1608.533,1939.43l-7.773,8.616a46.7,46.7,0,0,0,4.282,14.512l7.774-8.617a46.586,46.586,0,0,1-4.282-14.512" transform="translate(-1600.528 -1929.827)" fill="#35a3bf"/>
                  <path id="Path_3805" data-name="Path 3805" d="M1617.628,1970.255l-7.773,8.617q.682,1.448,1.468,2.907c.409.764.84,1.513,1.28,2.251l7.772-8.615c-.441-.737-.872-1.489-1.281-2.252q-.788-1.459-1.466-2.907" transform="translate(-1605.341 -1946.141)" fill="#35a3bf"/>
                </g>
              </g>
            </g>
            <g id="Group_212" data-name="Group 212" transform="translate(7.773 20.043)">
              <path id="Path_3807" data-name="Path 3807" d="M1629.981,1926.937l-13.021-5.724q.119-1.114.308-2.181c-1.439,7.852.246,17.306,5.488,27.022.41.763.84,1.515,1.281,2.252l-.054-.095q-.633-1.065-1.218-2.152l11.2-1.962C1630.672,1937.994,1629.438,1932.051,1629.981,1926.937Z" transform="translate(-1616.777 -1919.032)" fill="#3bb6d5"/>
            </g>
            <g id="Group_213" data-name="Group 213" transform="translate(7.956 0.522)">
              <path id="Path_3808" data-name="Path 3808" d="M1637.616,1877.565c-.668.117-1.3.258-1.931.4-10.149,2.384-16.456,9-18.209,19.119q-.188,1.066-.308,2.181l13.021,5.724c.821-7.746,5.756-13.567,14.111-15.021Z" transform="translate(-1617.167 -1877.565)" fill="#b0bfde"/>
            </g>
            <g id="Group_214" data-name="Group 214" transform="translate(36.039 84.456)">
              <path id="Path_3809" data-name="Path 3809" d="M1679.265,2056.988c-.818-.361-1.635-.736-2.446-1.133C1677.626,2056.246,1678.438,2056.623,1679.265,2056.988Z" transform="translate(-1676.819 -2055.855)" fill="#535c68"/>
            </g>
            <g id="Group_217" data-name="Group 217" transform="translate(7.262 57.739)" style="isolation: isolate">
              <g id="Group_216" data-name="Group 216" clip-path="url(#clip-path-20)">
                <g id="Group_215" data-name="Group 215" transform="translate(0 -8.422)" style="isolation: isolate">
                  <path id="Path_3810" data-name="Path 3810" d="M1623.464,1981.214l-7.772,8.616c.315.541.651,1.076.989,1.605l.162.259c.509.8,1.035,1.595,1.575,2.373.47.679.952,1.346,1.448,2.007l7.771-8.617q-.741-.987-1.449-2.007-.808-1.169-1.574-2.373c-.054-.087-.108-.173-.162-.261-.336-.528-.673-1.062-.989-1.6" transform="translate(-1615.692 -1981.214)" fill="#3bcaab"/>
                  <path id="Path_3811" data-name="Path 3811" d="M1632.331,1994.478l-7.771,8.617a67.206,67.206,0,0,0,5.512,6.458l7.771-8.616a67.329,67.329,0,0,1-5.512-6.459" transform="translate(-1620.385 -1988.234)" fill="#3ac8a7"/>
                  <path id="Path_3812" data-name="Path 3812" d="M1644.039,2008.2l-7.772,8.616a66.561,66.561,0,0,0,5.471,5.058l7.772-8.615a67.528,67.528,0,0,1-5.471-5.058" transform="translate(-1626.581 -1995.495)" fill="#39c5a5"/>
                  <path id="Path_3813" data-name="Path 3813" d="M1655.66,2018.943l-7.772,8.616a67.636,67.636,0,0,0,6.164,4.539l7.771-8.618a67.21,67.21,0,0,1-6.164-4.536" transform="translate(-1632.731 -2001.181)" fill="#38c2a3"/>
                  <path id="Path_3814" data-name="Path 3814" d="M1668.754,2028.578l-7.771,8.619a68.759,68.759,0,0,0,7.455,4.223c.243.118.486.233.729.349l7.773-8.617c-.245-.114-.486-.231-.73-.348a68.566,68.566,0,0,1-7.456-4.225" transform="translate(-1639.661 -2006.28)" fill="#38bfa1"/>
                  <path id="Path_3815" data-name="Path 3815" d="M1686.14,2038.292l-7.773,8.617q.85.4,1.717.784l7.773-8.617q-.868-.382-1.718-.783" transform="translate(-1648.861 -2011.421)" fill="#36bc9f"/>
                </g>
              </g>
            </g>
            <g id="Group_218" data-name="Group 218" transform="translate(38.494 65.773)">
              <path id="Path_3817" data-name="Path 3817" d="M1690.986,2016.169l-7.772,8.616-1.18,11.2,7.772-8.615Z" transform="translate(-1682.034 -2016.169)" fill="#92a4b7"/>
            </g>
            <path id="Path_3818" data-name="Path 3818" d="M1715.3,2039.755c.883-.154,1.731-.354,2.564-.579.215-.051.427-.11.637-.168.624-.179,1.232-.381,1.822-.591q.475-.181.947-.367c.3-.122.606-.25.9-.384h0s.008-.008.011-.009c.154-.067.3-.144.455-.218a22.9,22.9,0,0,0,7.1-5.27c-.438.489-.881.977-1.32,1.466.164-.149.322-.3.481-.454.089-.085.183-.169.271-.258.251-.247.491-.5.726-.763l.067-.068,0,0,0,0-7.772,8.616c-.025.028-.05.054-.078.08-.232.255-.468.5-.714.75-.1.1-.215.2-.319.305-.173.163-.344.328-.52.487-.121.11-.251.213-.376.321-.169.144-.336.29-.51.43-.133.109-.272.21-.41.315-.173.132-.344.266-.52.395-.145.1-.293.2-.439.3-.18.122-.357.246-.539.366-.152.1-.309.19-.465.285-.184.114-.366.228-.557.338-.158.091-.325.18-.49.27-.19.1-.38.209-.575.308-.169.088-.342.171-.517.255-.14.069-.276.139-.417.205-.059.028-.119.053-.18.082s-.108.052-.166.08c-.3.134-.6.259-.9.383s-.628.247-.945.366c-.591.21-1.2.411-1.825.591-.21.059-.42.117-.636.17-.833.223-1.683.425-2.564.579-7.978,1.392-16.892-.176-25.49-3.958l7.772-8.615C1698.4,2039.58,1707.316,2041.147,1715.3,2039.755Z" transform="translate(-1643.54 -1958.823)" fill="#b1c8df"/>
            <g id="Group_221" data-name="Group 221" transform="translate(8.251 50.92)" style="isolation: isolate">
              <g id="Group_220" data-name="Group 220" clip-path="url(#clip-path-21)">
                <g id="Group_219" data-name="Group 219" style="isolation: isolate">
                  <path id="Path_3819" data-name="Path 3819" d="M1625.564,1984.619l-7.772,8.618.162.259,7.771-8.617c-.054-.087-.108-.173-.162-.261" transform="translate(-1617.792 -1984.619)" fill="#c8a756"/>
                </g>
              </g>
            </g>
            <g id="Group_224" data-name="Group 224" transform="translate(8.251 50.92)" style="isolation: isolate">
              <g id="Group_223" data-name="Group 223" clip-path="url(#clip-path-21)">
                <g id="Group_222" data-name="Group 222" style="isolation: isolate">
                  <path id="Path_3821" data-name="Path 3821" d="M1625.564,1984.619l-7.772,8.618.162.259,7.771-8.617c-.054-.087-.108-.173-.162-.261" transform="translate(-1617.792 -1984.619)" fill="#bbc5c9"/>
                </g>
              </g>
            </g>
            <g id="Group_227" data-name="Group 227" transform="translate(7.435 49.317)" style="isolation: isolate">
              <g id="Group_226" data-name="Group 226" clip-path="url(#clip-path-23)">
                <g id="Group_225" data-name="Group 225" transform="translate(-0.173)" style="isolation: isolate">
                  <path id="Path_3823" data-name="Path 3823" d="M1623.464,1981.214l-7.772,8.616c.315.541.651,1.076.989,1.605l.162.259c.509.8,1.035,1.595,1.575,2.373.47.679.952,1.346,1.448,2.007l7.771-8.617q-.741-.987-1.449-2.007-.808-1.169-1.574-2.373c-.054-.087-.108-.173-.162-.261-.336-.528-.673-1.062-.989-1.6" transform="translate(-1615.692 -1981.214)" fill="#3bcaab"/>
                  <path id="Path_3824" data-name="Path 3824" d="M1632.331,1994.478l-7.771,8.617a67.206,67.206,0,0,0,5.512,6.458l7.771-8.616a67.329,67.329,0,0,1-5.512-6.459" transform="translate(-1620.385 -1988.234)" fill="#3ac8a7"/>
                  <path id="Path_3825" data-name="Path 3825" d="M1644.039,2008.2l-7.772,8.616a66.561,66.561,0,0,0,5.471,5.058l7.772-8.615a67.528,67.528,0,0,1-5.471-5.058" transform="translate(-1626.581 -1995.495)" fill="#39c5a5"/>
                  <path id="Path_3826" data-name="Path 3826" d="M1655.66,2018.943l-7.772,8.616a67.636,67.636,0,0,0,6.164,4.539l7.771-8.618a67.21,67.21,0,0,1-6.164-4.536" transform="translate(-1632.731 -2001.181)" fill="#38c2a3"/>
                  <path id="Path_3827" data-name="Path 3827" d="M1668.754,2028.578l-7.771,8.619a68.759,68.759,0,0,0,7.455,4.223c.243.118.486.233.729.349l7.773-8.617c-.245-.114-.486-.231-.73-.348a68.566,68.566,0,0,1-7.456-4.225" transform="translate(-1639.661 -2006.28)" fill="#38bfa1"/>
                  <path id="Path_3828" data-name="Path 3828" d="M1686.14,2038.292l-7.773,8.617q.85.4,1.717.784l7.773-8.617q-.868-.382-1.718-.783" transform="translate(-1648.861 -2011.421)" fill="#36bc9f"/>
                </g>
              </g>
            </g>
            <g id="Group_230" data-name="Group 230" transform="translate(36.039 75.84)" style="isolation: isolate">
              <g id="Group_229" data-name="Group 229" clip-path="url(#clip-path-24)">
                <g id="Group_228" data-name="Group 228" style="isolation: isolate">
                  <path id="Path_3830" data-name="Path 3830" d="M1684.59,2037.553l-7.771,8.616c.246.118.493.239.74.356l7.77-8.617c-.247-.116-.491-.235-.738-.355" transform="translate(-1676.819 -2037.553)" fill="#57606b"/>
                  <path id="Path_3831" data-name="Path 3831" d="M1686.161,2038.308l-7.77,8.617q.85.4,1.706.777l7.773-8.617q-.857-.376-1.71-.776" transform="translate(-1677.651 -2037.953)" fill="#545d69"/>
                </g>
              </g>
            </g>
            <g id="Group_233" data-name="Group 233" transform="translate(36.039 75.84)">
              <path id="Path_3833" data-name="Path 3833" d="M1678.978,2047.175c.1.041.193.085.287.127l7.773-8.618c-.82-.361-1.637-.734-2.448-1.131-2.33,2.584-5.439,6.031-7.771,8.616C1677.33,2046.417,1677.985,2046.732,1678.978,2047.175Z" transform="translate(-1676.819 -2037.553)" fill="#38bfa1"/>
              <g id="Group_232" data-name="Group 232" clip-path="url(#clip-path-25)">
                <g id="Group_231" data-name="Group 231" style="isolation: isolate">
                  <path id="Path_3834" data-name="Path 3834" d="M1684.59,2037.553l-7.771,8.616c.246.118.493.239.74.356l7.77-8.617c-.247-.116-.491-.235-.738-.355" transform="translate(-1676.819 -2037.553)" fill="#38bfa1"/>
                  <path id="Path_3835" data-name="Path 3835" d="M1686.161,2038.308l-7.77,8.617q.85.4,1.706.777l7.773-8.617q-.857-.376-1.71-.776" transform="translate(-1677.651 -2037.953)" fill="#38bfa1"/>
                </g>
              </g>
            </g>
            <g id="Group_234" data-name="Group 234" transform="translate(13.757 45.116)">
              <path id="Path_3837" data-name="Path 3837" d="M1663.178,1992.947a48.58,48.58,0,0,1-19.914-16.479,43.4,43.4,0,0,1-2.57-4.179l-11.206,1.949c.4.731.807,1.447,1.223,2.157l.054.095c.316.541.653,1.075.989,1.6.054.088.108.174.162.261q.766,1.208,1.574,2.373a67.724,67.724,0,0,0,26.052,22.286c.807.392,1.62.767,2.448,1.131Z" transform="translate(-1629.489 -1972.29)" fill="#48f7d0"/>
            </g>
          </g>
        </g>
      </g>
      <g id="Group_238" data-name="Group 238" transform="translate(151.729 212.044)">
        <path id="Path_3838" data-name="Path 3838" d="M1478.953,2002.088s6.07,2.215,24.617-2.989c6.6-1.853,21.035-6.462,29.011-6.546s14.221,3.262,17.981-6.854c1.688-4.543-5.955-6.4-9.727-3.136s-16.721,5.767-21.624,5.63-36.491-.106-41.8,3.426S1476.2,2001.705,1478.953,2002.088Z" transform="translate(-1474.828 -1969.722)" fill="#e9d6b8"/>
        <path id="Path_3839" data-name="Path 3839" d="M1600.322,1976.75s-1.757-2.912.95-8.252c1.051-2.08-.331-6.45-.331-6.45a2.823,2.823,0,0,1,3.292,2.852c-.089,3.171,1.4,4.558,3.485,3.317a34.417,34.417,0,0,0,4.724-2.832,54.911,54.911,0,0,0,6.5-7.227c.947-1,3.115-1.754,2.14.212-2.36,4.758-6.083,6.964-5.543,8.125.29.62-.211.8,4.53-1.15a41.908,41.908,0,0,0,7.145-4.316c1.39-1.137,2.36.04,1.96.481-5.17,5.683-12.4,6.937-12.194,8.3.088.565,1.2,1.056,3.878.212,1.282-.4,10.531-3.691,10.8-2.457.445,2.019-5.927,3.482-8.4,4.16-4.223,1.159-4.464,2.378-4.464,2.378-.025.92,4.177,1.124,6.519.849,2.461-.289,4.848-.286,4.473.891-.224.709-2.89.993-5.35,1.231a28.428,28.428,0,0,0-6.48,1.453c-.83.385-8.245,2.323-12.429,2.1S1600.279,1978.282,1600.322,1976.75Z" transform="translate(-1540.945 -1957.143)" fill="#e9d6b8"/>
      </g>
      <g id="Group_239" data-name="Group 239" transform="translate(185.694 40.954)">
        <path id="Path_3840" data-name="Path 3840" d="M1546.975,1628.586a2.733,2.733,0,0,0,2.637,2.824h5.1V1642l12.508-10.591h25.654a2.736,2.736,0,0,0,2.639-2.824v-32.045a2.733,2.733,0,0,0-2.639-2.82h-43.261a2.73,2.73,0,0,0-2.637,2.82Z" transform="translate(-1546.975 -1593.721)" fill="#0063cb"/>
        <path id="Path_3841" data-name="Path 3841" d="M1595.662,1624.245l-7.077,4.088-7.081,4.087v-16.351l7.081,4.086Z" transform="translate(-1565.249 -1605.548)" fill="#fff"/>
      </g>
      <g id="Group_240" data-name="Group 240" transform="translate(92.574 46.368)">
        <path id="Path_3842" data-name="Path 3842" d="M1384.514,1639.491a3.214,3.214,0,0,1-3.212,3.213h-2.142v7.5l-7.5-7.5h-19.277a3.214,3.214,0,0,1-3.214-3.213v-31.057a3.215,3.215,0,0,1,3.214-3.214H1381.3a3.214,3.214,0,0,1,3.212,3.214Z" transform="translate(-1349.173 -1605.22)" fill="#387bff"/>
      </g>
    </g>
    <path id="Path_3843" data-name="Path 3843" d="M1378.252,1630.832a2.676,2.676,0,1,1,3.739,0h4.629v3.867a2.676,2.676,0,1,0,0,3.738v3.866h-13v-11.471Z" transform="translate(-117.005 -63.251)" fill="#fff"/>
    <g id="Group_127" data-name="Group 127" transform="translate(1465.699 1699.578)">
      <path id="Path_3658" data-name="Path 3658" d="M1896.17,2032.794c.016-.032.032-.059.045-.082l-.045-2.512h-78.413v2.512a.131.131,0,0,0,0,.082l.268.464c1.341,2.179,3.736,2.568,6.475,2.568h64.928c2.745,0,5.133-.389,6.477-2.568Z" transform="translate(-1817.75 -1976.613)" fill="#7dc2f5"/>
      <g id="Group_125" data-name="Group 125" transform="translate(13.277 54.174)">
        <rect id="Rectangle_150" data-name="Rectangle 150" width="51.916" height="1.767" fill="#73a9ff"/>
      </g>
      <g id="Group_126" data-name="Group 126" transform="translate(0.07 0)">
        <path id="Path_3659" data-name="Path 3659" d="M1896.2,1970.23l.207-51.406a2.435,2.435,0,0,0-2.441-2.452h-73.394a2.464,2.464,0,0,0-2.463,2.452l-.212,51.406Z" transform="translate(-1817.899 -1916.372)" fill="#8dcfff"/>
        <path id="Path_3660" data-name="Path 3660" d="M1900.7,1968.235a4.753,4.753,0,1,1-4.734-4.755A4.772,4.772,0,0,1,1900.7,1968.235Z" transform="translate(-1856.687 -1941.303)" fill="#7dc2f5"/>
      </g>
    </g>
  </g>
</svg>
